<?xml version="1.0" encoding="utf-8"?>
<!-- Generator: Adobe Illustrator 25.3.1, SVG Export Plug-In . SVG Version: 6.00 Build 0)  -->
<svg version="1.1" id="Layer_1" xmlns="http://www.w3.org/2000/svg" xmlns:xlink="http://www.w3.org/1999/xlink" x="0px" y="0px"
	 viewBox="0 0 535 251.15" style="enable-background:new 0 0 535 251.15;" xml:space="preserve">
<path style="fill:#333333" d="M535,251.15c-178.32,0-357.53,0-535,0C0,167.46,0,83.76,0,0c178.3,0,363.71,0,535,0C535,83.68,535,167.41,535,251.15z
	 M387.55,60.13c0.33-0.56,0.82-1.09,0.96-1.7c1.61-6.58,3.17-13.18,4.74-19.77c-0.08-1.73,0.76-2.23,2.44-2.23
	c2.32,0,4.65-0.34,6.97-0.54c-0.01-0.11-0.02-0.23-0.02-0.34c-3.13,0.2-6.26,0.41-9.6,0.63c0.08,0.92,0.15,1.71,0.22,2.49
	c-0.38,0.69-0.95,1.35-1.11,2.09c-0.67,3.03-1.12,6.12-1.83,9.14c-0.81,3.45-1.8,6.85-2.71,10.28c-0.05,0.99-0.55,2.36-0.08,2.9
	c1.91,2.21,4.11,4.17,6.21,6.22c0.13-0.15,0.26-0.3,0.4-0.44C391.76,66.08,387.61,64.65,387.55,60.13z M158.3,102.78
	c5.13,0.86,10.28,1.42,15.47,0.88c-0.86-0.22-1.74-0.19-2.61-0.22c-4.3-0.19-8.59-0.4-12.89-0.61c-0.71-0.29-1.39-0.75-2.13-0.84
	c-3.83-0.48-6.1-2.67-7.21-6.26c-0.3-0.99-0.82-1.91-1.14-2.89c-2.5-7.59-6.14-14.89-5.68-23.68c-1.63,3.67-0.75,6.89,0.19,9.91
	c1.83,5.85,4.26,11.51,6.04,17.38C149.71,100.97,152.33,102.39,158.3,102.78z M422.19,53.93c-0.25-0.13-0.48-0.33-0.75-0.39
	c-6.34-1.47-12.69-2.96-19.05-4.32c-0.44-0.09-1.4,0.68-1.58,1.23c-0.89,2.67-1.64,5.4-2.36,8.12c-0.3,1.14-0.41,2.34-0.6,3.51
	c1.34-3.49,2.35-7.03,3.24-10.6c0.32-1.3,0.99-1.76,2.23-1.5c3.12,0.68,6.22,1.42,9.35,2.06c3.18,0.66,6.38,1.23,9.57,1.84
	c0.56,0.74,1.59,1.46,1.62,2.22c0.26,6.75,0.17,13.52,0.57,20.27c0.19,3.22-0.58,5.04-3.5,6.86c-6.9,4.29-13.41,9.2-20.07,13.86
	c-0.8,0.17-1.77,0.71-2.36,0.44c-3.36-1.55-6.63-3.3-10.48-5.26c4.04,3.49,8.35,5.13,13.15,6.84c-0.16-1.05-0.24-1.53-0.31-2.02
	c0.9-0.33,1.91-0.49,2.68-1.01c2.96-1.96,5.82-4.07,8.76-6.07c3.79-2.59,7.56-5.23,11.46-7.64c1.22-0.75,1.49-1.42,1.44-2.76
	c-0.27-7.71-0.46-15.42-0.59-23.14C424.57,54.74,424.09,53.74,422.19,53.93z M332.1,100.55c-2.29-1.23-4.58-2.47-6.87-3.7
	c-0.12,0.27-0.25,0.55-0.37,0.82c2.43,0.95,4.85,1.89,7.28,2.84c1.78,1.8,4.05,2.02,4.92,0.16c1.56-3.32,3.43-6.76,3.84-10.31
	c0.94-8.11,1.07-16.32,1.56-24.49c0.24-4.08,0.46-8.17,0.84-12.24c0.33-3.46,0.91-6.9,1.33-10.35c0.69-5.59,1.23-11.21,2.06-16.78
	c0.54-3.68-0.79-5.12-4.63-4.5c1.02,0.35,2.15,0.56,3.07,1.12c0.57,0.35,1.2,1.25,1.16,1.86c-0.16,2.51-0.54,5-0.89,7.5
	c-0.98,6.98-2.35,13.92-2.89,20.93c-0.78,10.06-0.95,20.16-1.43,30.24c-0.26,5.45-1.03,10.77-3.92,15.59
	c-1.02,1.7-2.1,2.4-3.97,1.47C332.87,100.56,332.46,100.6,332.1,100.55z M277.45,31.56c0.77-2.63,1.62-5.24,2.28-7.9
	c0.69-2.77-0.24-3.91-3.17-4.15c-0.46-0.3-0.89-0.75-1.39-0.89c-5.34-1.43-10.7-2.81-16.18-4.24c-0.54,1.83-1.14,3.95-1.79,6.04
	c-1.72,5.52-3.47,11.02-5.17,16.55c-0.17,0.55-0.12,1.19-0.07,1.78c0.42,4.88,0.96,9.75,1.3,14.63c0.57,8.17,1.07,16.35,1.5,24.53
	c0.2,3.94,0.34,7.76,2.98,11.13c1.67,2.13,2.91,4.65,4.05,7.13c0.83,1.81,2.01,1.93,3.61,1.56c5.35-1.24,10.7-2.47,16.04-3.72
	c4.49-1.05,8.97-2.13,13.47-3.16c1.23-0.28,1.98-0.61,1.68-2.22c-1.61-8.66-3.11-17.34-4.68-26.2c-5.35,1.9-10.82,3.83-16.45,5.82
	c-0.58-3.54-1.14-6.59-1.56-9.66c-0.31-2.34-0.82-4.76-0.55-7.06c0.4-3.44,1.43-6.81,2.15-10.21
	C276.17,38.07,276.8,34.81,277.45,31.56z M461.48,71.98c-0.25-0.11-0.51-0.22-0.76-0.34c0.38-0.47,0.55-1.06,1.18-1.39
	c1.72-0.91,3.41-1.97,5.51-2.5c5.62-1.42,9.51-3.73,12.64-6.52c2.75-2.45,5.51-4.89,7.99-7.42c0.56-0.57,0.52-1.67-0.15-2.19
	c-4.53-3.57-9.28-7.06-14.02-10.54c-0.91-0.67-1.96-0.8-3.65-0.33c-6.91,1.9-13.98,3.62-20.98,5.43c-1.95,0.5-3.61,1.13-3.07,2.58
	c0.24,0.64,0.4,1.34,0.18,1.97c-0.82,2.29,0.72,3.56,4.79,4.37c2.5,0.49,3.89,0.45,4.94-0.86c0.79-0.98,1.55-1.97,2.31-2.96
	c0.95-1.24,2.03-1.96,4.93-1.24c3.33,0.82,6.94,1.3,10.88,2.01c-1.75,2.44-3.11,4.68-4.99,6.8c-0.8,0.9-2.65,1.53-4.08,2.26
	c-5.99,3.06-12,6.1-18,9.15c-0.72,0.37-1.34,0.86-2.2,1.07c-3.47,0.84-3.39,1.97-1.5,3.54c3.31,2.74,6.46,5.55,9.5,8.38
	c1.43,1.33,2.66,2.76,3.58,4.21c0.81,1.29,2.26,1.74,4.47,1.45c6.91-0.9,13.8-1.84,20.68-2.8c2.17-0.3,3.19-1,2.91-2.36
	c-0.38-1.84-0.54-3.71-0.43-5.56c0.12-1.97-2.73-2.58-4.89-3.49c-0.36-0.15-1.61,0.15-2.26,0.39c-2.35,0.87-4.59,1.82-6.92,2.69
	c-1.76,0.66-3.11,0.65-4.1-0.63c-0.91-1.18-2.26-2.26-2.95-3.56c0.87,0.69,1.95,1.32,2.57,2.07c1.38,1.66,3.17,1.74,5.61,0.59
	c-5.93,0.43-5.33-2.71-7.89-3.89c1.28-0.89,2.31-1.6,3.35-2.32c3.34,0.18,9.38-1.86,10.98-3.5c-3.32,1.06-7.15,2.28-10.98,3.5
	C464.95,70.67,463.21,71.32,461.48,71.98z M423.24,133.58l0.06,0.02c-8.01-0.7-16-1.58-24.02-2.05c-5.46-0.32-10.95,0-16.42-0.07
	c-6.78-0.08-13.56-0.33-20.34-0.4c-7.36-0.07-14.72-0.01-22.08-0.02c-8.12-0.01-16.23-0.09-24.35,0c-1.63,0.02-2.37-0.62-3.45-1.75
	c-3.2-3.36-6.28-7.29-10.25-9.39c-7.39-3.89-15.4-6.58-23.11-9.88c-4.8-2.06-9.68-2.08-14.36-0.22c-7.8,3.09-15.53,6.38-23.1,10.01
	c-3.56,1.71-6.85,4.15-9.9,6.69c-2.54,2.12-4.46,4.97-6.83,7.33c-0.9,0.9-2.27,1.86-3.44,1.87c-5.58,0.09-11.18-0.46-16.74-0.17
	c-6.31,0.33-12.58,0.81-18.84-0.45c-0.94-0.19-1.93-0.17-2.9-0.16c-4.39,0.04-8.79,0.14-13.18,0.15c-9.31,0.01-18.62-0.1-27.93-0.04
	c-10.96,0.07-21.93,0.26-32.89,0.38c-1.79,0.02-3.58,0.02-5.37-0.09c-6.76-0.38-13.56-1.42-20.28-1.07
	c-10.77,0.56-21.21,0.02-31.49-3.6c-8.38-2.95-16.68-5.92-23.59-11.7c-1.78-1.49-3.31-3.32-4.83-5.1c-1.24-1.46-2.3-3.08-3.43-4.64
	c-0.16,0.12-0.32,0.25-0.48,0.37c0.87,1.35,1.67,2.74,2.63,4.03c0.91,1.23,0.98,1.94-0.65,2.64c-4,1.72-7.72,3.89-10.1,7.76
	c-0.76,1.23-1.51,0.81-1.98-0.15c-0.58-1.19-1.18-2.45-1.36-3.74c-0.39-2.9-0.51-5.84-0.72-8.43c-2.7,15.5,8.55,23.81,17.55,25.39
	c-0.07-0.85-0.3-1.76-0.17-2.61c0.59-4.02,5.99-9.16,10-9.54c0.48-0.05,1.02,0.16,1.49,0.35c4.26,1.74,8.5,3.49,12.75,5.26
	c0.49,0.21,0.94,0.53,1.46,0.82c-7.83,7.66-8.6,8.84-9.52,14.52c6.35,4.26,13.97,2.97,21.03,4.79c-2.52-0.57-2.53-2.34-2.02-4.06
	c0.54-1.83,1.18-3.74,2.25-5.3c2.8-4.08,6.22-7.19,11.82-6.2c1.51,0.27,3.12-0.1,4.69-0.12c2.34-0.03,4.68-0.01,6.94-0.01
	c0.08,0.4,0.13,0.5,0.1,0.53c-0.48,0.56-0.94,1.14-1.47,1.65c-3.07,2.99-4.39,6.64-4.15,10.9c0.18,3.24-3.16,4.27-3.16,4.27h23.84
	c0,0-0.25-4.07,0.05-5.9c0.68-4.19,3.47-7.15,6.45-9.9c0.28-0.26,0.83-0.31,1.25-0.32c5.44-0.1,10.87-0.18,16.31-0.23
	c0.62-0.01,1.25,0.16,2.38,0.31c-4.78,5.29-4.71,18.04-4.71,18.04h22.17c0,0-1.67-11.44,1.5-16.62c0.5-0.81,1.75-1.63,2.67-1.65
	c3.94-0.08,7.89,0.13,11.83,0.27c0.48,0.02,0.95,0.22,1.71,0.4c-2.21,5.47-2.92,10.89-0.75,16.4c1.68,0,3.43,0.25,5.07-0.04
	c9.62-1.73,19.28-0.94,28.9-0.34c6.77,0.42,13.49,1.76,20.22,2.76c3.33,0.49,3.32,0.56,3.26,3.9c-0.01,0.75-0.04,1.49-0.06,2.24
	c-0.15,5.78,0.81,11.37,2.66,16.86c1.28,3.79,2.02,7.76,3.19,11.59c1.31,4.31,2.53,8.68,4.36,12.77c1.22,2.73,3.33,5.1,5.24,7.47
	c3.22,3.99,6.38,8.06,9.95,11.73c4.8,4.94,9.95,9.55,14.98,14.28c4.29,4.03,10.45,6.98,16.97,2.97c4.14-2.54,7.82-5.14,10.6-9.23
	c2.02-2.98,5.13-5.21,7.23-8.15c4.26-5.96,8.21-12.15,12.18-18.31c2.53-3.92,5.15-7.83,7.2-12c2.48-5.05,2.53-10.65,2.65-16.19
	c0.18-8.18,1.94-16.29,0.98-24.52c-0.03-0.29-0.09-0.69,0.06-0.88c0.5-0.59,1.07-1.53,1.65-1.56c4.55-0.26,9.11-0.43,13.66-0.44
	c6.32-0.01,12.63,0.22,18.95,0.2c7.2-0.02,14.4-0.14,21.59-0.35c5.05-0.15,10.09-0.51,15.13-0.78c-0.01-0.15-0.02,0.19-0.02,0.19
	h-3.89c0,0-0.74-10.76-3.5-15.16c3.46,0,6.56-0.01,9.66,0c3.13,0.01,6.27,0.04,9.4,0.1c0.42,0.01,1.04,0.08,1.23,0.35
	c1.61,2.35,3.67,4.57,4.55,7.18c0.89,2.64,0.57,5.67-1.91,8.46c6.73,0,12.97,0.15,19.2-0.04c5.87-0.18,11.73-1,17.6-1.05
	c8.21-0.07,16.43,0.32,23.87,0.49c2.36-5.56,0.38-10.29-3.18-14.67c6.24,0,12.04-0.01,17.84,0.02c0.41,0,0.86,0.24,1.21,0.49
	c3.06,2.2,4.98,7.87,4.04,11.46c-0.36,1.37-1.07,2.04-2.47,2.09c-0.74,0.02-1.48,0.13-2.21,0.24c-0.72,0.11-1.43,0.27-2.14,0.4
	c0.04,0.21,0.09,0.42,0.14,0.63c8.07-1.49,16.14-2.97,24.2-4.46c-0.24-1.07-0.5-1.6-0.45-2.1c0.31-3.45-1.19-6.26-3.26-8.76
	c-0.94-1.14-1.7-1.92,0.2-2.61c-6.38,0.77-12.58,1.9-18.77,1.85c-15.29-0.13-30.56-0.05-45.82,0.9
	C430.39,133.42,426.81,133.46,423.24,133.58z M71.84,88.24c0,4.44-0.01,8.24,0,12.04c0.01,4.2,0.16,5.62,5.9,6.05
	c4.98,0.38,9.97,0.53,14.95,0.78c7.5,0.38,15,0.85,22.51,1.03c1.22,0.03,3.04-0.97,3.62-2.02c1.95-3.57,3.6-7.33,5.12-11.11
	c1.83-4.55,3.37-9.21,5.14-13.78c1-2.6,0.97-2.86-1.83-3.62c-3.86-1.05-7.77-1.93-11.59-3.09c-2.43-0.73-4.29-0.37-5.92,1.66
	c-1.06,1.33-2.36,2.48-3.59,3.66c-1.03,0.98-0.96,1.69,0.27,2.44c1.9,1.16,3.69,2.49,5.62,3.58c1.53,0.87,2.17,1.9,1.55,3.63
	c-0.57,1.61-0.94,3.31-1.63,4.86c-0.26,0.58-1.19,1.21-1.82,1.21c-3.72-0.01-7.46-0.03-11.16-0.36c-5.71-0.5-5.69-0.61-6.8-6.24
	C90.67,81.31,89.17,73.65,87.6,66c-0.27-1.31-0.19-2.31,1.05-3.04c6.03-3.51,12.01-7.1,18.1-10.52c1.49-0.83,2.77,0.22,3.51,1.54
	c1.04,1.88,1.93,3.84,2.86,5.78c0.93,1.95,2.03,3.36,4.61,2.81c2.1-0.44,4.29-0.41,6.44-0.62c2.57-0.25,3.61-1.76,3.18-4.27
	c-0.49-2.85-0.72-5.75-1.32-8.58c-0.21-0.98-1-2.39-1.8-2.61c-6.77-1.93-13.6-3.69-20.44-5.38c-1.77-0.43-3.49-0.46-5.23,0.88
	c-7.25,5.56-14.6,10.98-22,16.34c-4,2.9-6.58,6.32-6.08,11.59C71.06,76.23,71.42,82.55,71.84,88.24z M421.2,61.57
	c0.12,0,0.24-0.01,0.35-0.01c0-1.12-0.19-2.28,0.04-3.35c0.46-2.07-0.56-2.76-2.32-3.17c-3.83-0.9-7.62-1.96-11.45-2.84
	c-3.9-0.89-3.93-0.83-5.32,3c-0.3,0.82-0.38,1.71-0.58,2.57c-0.51,2.14,0.29,3.4,2.39,4.14c2.23,0.79,4.34,1.93,6.55,2.8
	c1.1,0.43,1.53,0.93,1.18,2.16c-0.99,3.5-1.83,7.04-2.83,10.54c-0.56,1.95-4.85,3.43-6.34,2.12c-5.56-4.84-11.13-9.68-16.44-14.78
	c-1.15-1.1-1.87-3.37-1.71-4.99c0.84-8.38,3.14-16.46,5.93-24.38c0.24-0.67,1.26-1.41,2-1.5c2.8-0.33,5.66-0.25,8.45-0.63
	c2.66-0.36,4.31,0.41,5.45,2.93c0.94,2.08,1.99,4.67,3.75,5.66c1.85,1.04,4.63,0.33,6.98,0.6c1.68,0.19,2.11-0.63,2.17-1.99
	c0.12-2.86,0.04-5.59-2.14-7.92c-1.24-1.33-1.95-3.15-3.02-4.66c-0.47-0.67-1.18-1.45-1.91-1.61c-4.97-1.14-10.06-1.85-14.95-3.27
	c-4.53-1.32-8.58-1.02-12.55,1.47c-1.57,0.98-3.24,1.82-4.92,2.62c-1.66,0.79-2.77,1.98-3.07,3.8c-0.56,3.45-1.11,6.9-1.59,10.36
	c-0.86,6.19-1.76,12.37-2.42,18.58c-0.18,1.7-0.05,3.73,0.73,5.19c1.91,3.6,4.26,6.96,6.45,10.4c1.03,1.63,2.12,3.22,3.17,4.83
	c3.25,5,5.49,10.9,11.34,13.66c1.67,0.79,4.25,1.82,5.43,1.11c6.96-4.23,13.6-9,20.44-13.45c1.35-0.88,1.75-1.83,1.66-3.28
	C421.78,72.7,421.49,67.13,421.2,61.57z M298.1,20.61c0.39,1.54,0.64,2.99,1.12,4.37c2.02,5.79,4.06,11.59,6.21,17.34
	c1.42,3.8,3.05,7.53,4.58,11.29c0.71,1.75,1.81,1.85,3.56,1.31c4.29-1.32,8.67-2.34,13.57-3.63c-0.33,9.66-0.66,19.07-1,29.08
	c-6.32-2.17-11.13-6.66-17.11-8.88c-1.11,2.49-2.18,5.01-3.37,7.47c-0.73,1.52-0.33,2.46,1.04,3.31
	c8.58,5.31,17.11,10.7,25.72,15.97c2.13,1.3,3.33,0.56,4.03-2.16c2.15-8.39,2.81-16.92,2.68-25.58c-0.07-4.96,0.11-9.97,0.77-14.88
	c1.35-10.14,3.1-20.22,4.75-30.7c-3.78-0.89-7.56-1.79-11.45-2.71c-0.17,0.34-0.46,0.7-0.56,1.1c-1.23,5.26-2.41,10.53-3.66,15.78
	c-0.14,0.57-0.57,1.36-1.03,1.5c-2.19,0.64-4.48,1.58-6.66,1.42c-1.11-0.08-2.06-2.27-3.08-3.51c-0.05-0.06-0.1-0.11-0.14-0.18
	c-4.56-6.66-10.14-12.64-13.51-20.33C302.38,18.87,300.28,19.72,298.1,20.61z M226.01,74.66c0-0.02-0.01-0.05-0.01-0.07
	c-1.86,0-3.72,0-5.58,0c-1.74,0-2.37-1.23-2.47-2.61c-0.15-2.11-0.12-4.24,0-6.35c0.2-3.49,0.68-6.97,0.73-10.46
	c0.03-1.87-0.15-3.98-0.97-5.6c-3.67-7.19-7.69-14.21-11.42-21.37c-0.92-1.77-1.98-2.41-3.84-1.92c-2.51,0.66-5.03,1.3-7.54,1.98
	c-2.09,0.57-3,2.31-2.09,4.22c2.57,5.4,5.19,10.78,7.83,16.14c0.95,1.92,1.89,3.87,3.08,5.65c2.08,3.13,2.45,6.49,2.38,10.17
	c-0.17,8.84-0.02,17.68,0.06,26.53c0.01,1.51,0.76,2.37,2.51,2.45c10.26,0.5,20.51,1.11,30.76,1.68c1.81,0.1,2.56-0.7,2.4-2.51
	c-0.12-1.41-0.29-2.83-0.2-4.23c0.22-3.41,0.55-6.81,0.87-10.22c0.17-1.86-0.5-2.67-2.5-2.73
	C235.35,75.28,230.68,74.93,226.01,74.66z M178.93,60.52c-0.51,1.08-0.85,1.89-1.26,2.66c-2.25,4.19-4.63,8.31-6.76,12.55
	c-2.48,4.92-2.39,4.96-7.77,4.67c-0.15-0.01-0.3-0.01-0.45-0.02c-6.98-0.27-9.83-8.14-8.5-12.74c0.64-2.21,1.26-4.42,1.76-6.66
	c0.4-1.81,1.37-4.05,0.68-5.37c-0.62-1.2-3.14-1.42-4.82-2.07c-0.48-0.18-0.95-0.43-1.45-0.51c-1.54-0.24-2.65-0.12-2.98,1.93
	c-0.7,4.4-1.72,8.74-2.56,13.12c-0.37,1.94-1.33,4.13-0.8,5.82c2.41,7.61,5.16,15.12,8.06,22.56c0.43,1.1,2.2,2.18,3.48,2.37
	c5.51,0.82,11.07,1.48,16.63,1.78c1.58,0.08,4.14-0.85,4.73-2.05c4.91-10.07,9.47-20.31,14.11-30.51c1.07-2.36,0.84-2.87-1.61-3.9
	c-2.53-1.06-5.05-2.13-7.61-3.1C180.95,60.72,179.95,60.7,178.93,60.52z M499.09,68.44c1.23,1.78,2.32,3.15,3.18,4.65
	c2.46,4.33,5.08,8.6,7.15,13.11c2.1,4.57,4.13,9.28,5.28,14.15c2.07,8.8-3.8,14.98-8.27,21.47c-1.59,2.31-3.6,4.33-5.42,6.49
	c1.16-0.43,2.23-0.94,2.87-1.78c0.91-1.19,1.87-1.28,2.85-0.47c2.73,2.26,5.42,4.56,8,6.99c0.51,0.48,0.41,1.59,0.58,2.37
	c0.73-0.51,1.64-1.16,2.55-1.79c4.03-2.76,7.44-5.77,7.3-11.37c-0.19-7.31-0.21-14.59-3.19-21.47c-2.87-6.61-5.57-13.34-10.03-19.06
	c-3.27-4.2-6.96-8.09-10.52-12.05C500.91,69.13,500.02,68.92,499.09,68.44z M20.01,107.14c-0.73-4.74-1.31-9.52-2.24-14.22
	c-1.34-6.75-0.35-12.86,3.44-18.75c1.89-2.94,2.67-6.59,3.95-9.91c-0.17-0.09-0.33-0.19-0.5-0.28c-0.52,0.58-1.14,1.11-1.55,1.76
	c-0.92,1.43-1.65,2.99-2.61,4.38c-3.23,4.68-6.6,9.27-9.76,13.99c-1.14,1.71-2.12,3.62-2.72,5.57c-1.94,6.38-1.66,12.85-0.34,19.34
	C10.87,105.3,17.66,103.36,20.01,107.14z M426.7,15.66c1.55,4.42,2.98,8.79,4.66,13.05c0.28,0.71,1.59,1.22,2.51,1.39
	c0.41,0.07,1.21-0.87,1.48-1.5c0.77-1.77,1.43-3.59,2-5.43c0.91-2.92,1.72-5.88,2.66-9.11C435.36,14.62,431.11,15.13,426.7,15.66z
	 M245.1,73.52c-1.97-0.31-4.35-0.91-6.75-1.01c-5.05-0.22-10.12-0.13-15.17-0.33c-0.74-0.03-1.93-0.85-2.07-1.49
	c-0.29-1.34-0.36-2.92,0.09-4.19c1.36-3.86,0.24-7.69,0.07-11.5c-0.1-2.26-0.38-4.72-1.39-6.68c-4.12-8.03-8.55-15.9-12.9-23.81
	c-0.16-0.29-0.67-0.4-1.02-0.59c2.87,5.83,6.08,11.36,9.18,16.95c1.61,2.91,3.53,5.79,4.41,8.94c1.43,5.14,2.15,10.47,0.82,15.86
	c-0.41,1.64-0.52,3.38-0.56,5.08c-0.01,0.5,0.55,1.26,1.04,1.47c0.86,0.37,1.86,0.52,2.81,0.57c6.23,0.33,12.46,0.67,18.69,0.88
	c1.84,0.06,2.15,0.73,2.09,2.47c-0.17,5.33-0.16,10.67-0.08,16c0.04,2.9-1.05,4.25-4.04,4.36c-1.78,0.06-3.56,0.01-5.34,0.01
	c2.28,0.47,4.59,0.85,6.83,0.59c1.06-0.13,2.48-1.32,2.83-2.34c0.56-1.62,0.43-3.5,0.45-5.28C245.13,84.33,245.1,79.21,245.1,73.52z
	 M189.77,29.8c-0.22,0.07-0.44,0.14-0.67,0.21c0.14,0.62,0.2,1.28,0.45,1.85c3.46,7.85,6.83,15.74,10.48,23.5
	c1.78,3.78,3,7.53,2.7,11.76c-0.48,6.76-0.92,13.52-1.1,20.29c-0.08,3.05,0.51,6.12,0.77,8.96c6.9,0,13.46,0,20.03,0
	c-5.66-0.39-11.31-0.35-16.96-0.44c-0.79-0.01-2.16-0.59-2.24-1.08c-0.49-2.92-0.99-5.9-0.91-8.84c0.15-5.43,0.64-10.85,1.1-16.26
	c0.41-4.83,0.11-9.44-2.27-13.85c-2.39-4.42-4.65-8.93-6.66-13.54C192.7,38.26,191.33,33.99,189.77,29.8z M295.73,18.9
	c-0.17-0.07-0.34-0.15-0.51-0.22c0,0.94-0.21,1.94,0.04,2.82c1.15,4.13,2.28,8.27,3.7,12.31c2.59,7.38,5.3,14.71,8.11,22
	c0.82,2.13,2.37,3.23,4.93,2.3c2.15-0.78,4.46-1.11,6.66-1.79c1.69-0.52,3.3-1.29,4.95-1.94c-3.67,0.87-7.25,1.88-10.83,2.87
	c-3.2,0.89-4.32,0.44-5.46-2.67c-2.98-8.1-5.95-16.21-8.71-24.39C297.37,26.51,296.67,22.66,295.73,18.9z M369.7,63.2
	c-0.09-11.91,3.9-23.59,5.43-36.27c-0.56,1.31-1.09,2.13-1.25,3.01c-1.5,8.45-2.89,16.92-4.43,25.36
	C368.91,58.19,368.85,60.97,369.7,63.2z M323.79,77.81c0.42-8.25,0.81-16.16,1.21-24.07c-0.23-0.01-0.45-0.03-0.68-0.04
	c-0.45,7.55-0.9,15.1-1.36,22.85c-1.16-0.42-1.93-0.7-2.71-0.98c-0.05,0.11-0.09,0.22-0.14,0.32
	C321.26,76.49,322.42,77.09,323.79,77.81z M311.95,88.7c0.1-0.15,0.21-0.3,0.31-0.45c-2.37-1.7-4.69-3.47-7.12-5.08
	c-2.42-1.61-2.02-3.65-1.06-5.77c1.44-3.18,2.99-6.31,4.5-9.46c-3.29,3.88-5.03,8.54-6.87,13.6
	C305.05,83.88,308.5,86.29,311.95,88.7z M329.55,26.64c-0.17-0.03-0.34-0.05-0.52-0.08c-0.89,3.35-1.88,6.67-2.63,10.05
	c-0.37,1.67-1.22,2.46-2.83,2.55c-1.64,0.09-3.15,0.21-4.14-1.74c-1.06-2.08-2.62-3.9-3.96-5.83c-0.15,0.11-0.29,0.21-0.44,0.32
	c1.21,1.83,2.4,3.68,3.65,5.48c1.48,2.13,4.55,3.08,6.86,2.07c0.48-0.21,1.02-0.75,1.14-1.24C327.69,34.37,328.6,30.5,329.55,26.64z
	 M123.15,43.88c-0.07,0.16-0.13,0.32-0.2,0.48c0.9,0.33,1.78,0.81,2.71,0.94c1.61,0.23,2.13,0.91,2.29,2.61
	c0.42,4.47,1.18,8.91,1.81,13.36c0.26-0.38,0.38-0.75,0.34-1.11c-0.45-4.58-0.91-9.15-1.43-13.72c-0.04-0.35-0.42-0.84-0.75-0.96
	C126.35,44.89,124.75,44.41,123.15,43.88z M409.04,66.37c-1.11,3.07-2.18,6.05-3.25,9.03c-0.44,1.21-1.21,1.11-2.09,0.51
	c-1.06-0.72-2.12-1.45-3.18-2.18c-0.1,0.16-0.2,0.31-0.3,0.47c1.88,1.24,3.75,2.48,5.64,3.73c1.5-4.3,2.84-8.14,4.24-12.18
	c-1.28-0.26-2.27-0.46-3.26-0.66c-0.02,0.1-0.05,0.21-0.07,0.31C407.43,65.68,408.08,65.96,409.04,66.37z M488.45,77.55
	c0.03-0.29,0.16-0.7-0.12-0.86c-2.73-1.54-5.54-3.04-8.33-4.55c-0.25,0.14-0.51,0.29-0.76,0.43c2.04,1.06,4.01,2.16,6.15,3.16
	c1.76,0.82,2.34,1.72,2.02,2.98c-0.47,1.89-0.62,3.8-0.8,5.7c-0.06,0.63,0.21,1.27,0.33,1.9c0.2-0.01,0.4-0.01,0.6-0.02
	C487.85,83.38,488.16,80.47,488.45,77.55z M408.71,44.28c0.03,0.24,0.05,0.48,0.08,0.73c3.41,0,6.82,0.12,10.21-0.08
	c0.91-0.06,2.44-1.03,2.52-1.72c0.31-2.49,0.12-5.03,0.12-7.56c-0.36,1.63-0.33,3.24-0.36,4.85c-0.05,2.79-0.97,3.74-3.74,3.78
	C414.6,44.31,411.66,44.28,408.71,44.28z M155.75,69.5c-0.28,3.05,1.23,5.66,2.79,7.93c1.66,2.43,4.82,1.43,7.38,1.54
	c-0.77-0.32-1.58-0.28-2.39-0.33c-2.08-0.12-4.06-0.61-5.05-2.65C157.46,73.88,156.65,71.66,155.75,69.5z M312.61,29.02
	c0.2-0.11,0.39-0.22,0.59-0.33c0.01-0.14,0.09-0.32,0.03-0.41c-2.43-4.15-4.98-8.25-5.89-13.09c-0.05-0.25-0.66-0.4-1.02-0.6
	c-0.14,0.14-0.29,0.28-0.43,0.42C308.13,19.67,310.37,24.35,312.61,29.02z M103.54,93.54c0.01-0.08,0.01-0.17,0.02-0.25
	c-1.62,0-3.25,0.03-4.87-0.01c-2.07-0.04-3.27-1.02-3.57-3.17c-0.34-2.38-0.87-4.73-1.32-7.09c0.02,3.05,0.4,6.04,1.04,8.97
	c0.13,0.62,1.17,1.41,1.84,1.47C98.96,93.66,101.25,93.54,103.54,93.54z M177.7,57.76c4.62,0.29,7.66,5.36,12.66,4.31
	C185.57,62.31,182.52,57.28,177.7,57.76z M100.96,81.83c0.36,2.62,3.79,4.65,11.24,6.73C108.31,86.03,103.79,85.61,100.96,81.83z
	 M457.66,57.48c-4.65-0.95-9.29-1.89-13.94-2.83C445.55,56.04,456.24,57.95,457.66,57.48z M391.77,146.64
	c-0.01,0.21-0.02,0.41-0.03,0.62c3.66,0.17,7.33,0.34,10.99,0.5c0.01-0.2,0.02-0.41,0.02-0.61
	C399.09,146.98,395.43,146.81,391.77,146.64z M429.5,31.72c2.93,1.69,5.6,1.2,8.21,1.03c0.24-0.02,0.43-0.94,0.61-1.36
	C435.46,32.79,432.75,31.88,429.5,31.72z M454.54,90.07c0.66,1.12,1.18,1.3,3.98,0.99c4.15-0.47,8.28-0.99,13.38-1.6
	C465.44,89.02,460.09,91.47,454.54,90.07z M154.01,52.49c3.47,0.8,6.05,2.17,4.42,6.48C160.21,53.76,159.64,52.92,154.01,52.49z
	 M481.44,43.15c-2.31-2.95-6.76-5.01-10.17-4.37C476.76,39.06,477.91,41.84,481.44,43.15z M471.01,52.59
	c-2.94-0.68-5.76-1.31-8.88-1.25c2.71,0.76,6.25,0.5,7.94,2.53C470.38,53.45,470.65,53.07,471.01,52.59z M333.32,19.15
	c-0.78,0.03-2.09-0.17-2.23,0.14c-0.63,1.43-0.93,3-1.44,4.86C331.53,22.73,329.81,19.21,333.32,19.15z M74.35,108.78
	c-1.95-1.8-3.64-3.35-5.34-4.91C69.58,106.66,71.75,107.67,74.35,108.78z"/>
<path style="fill:#FFFFFF;" d="M423.24,133.58c3.57-0.12,7.14-0.16,10.7-0.38c15.26-0.95,30.53-1.02,45.82-0.9
	c6.19,0.05,12.39-1.07,18.77-1.85c-1.9,0.68-1.14,1.47-0.2,2.61c2.07,2.51,3.57,5.31,3.26,8.76c-0.05,0.5,0.21,1.03,0.45,2.1
	c-8.05,1.48-16.13,2.97-24.2,4.46c-0.05-0.21-0.09-0.42-0.14-0.63c0.71-0.14,1.42-0.29,2.14-0.4c0.73-0.11,1.47-0.22,2.21-0.24
	c1.4-0.04,2.11-0.71,2.47-2.09c0.95-3.6-0.98-9.26-4.04-11.46c-0.35-0.25-0.8-0.49-1.21-0.49c-5.8-0.03-11.6-0.02-17.84-0.02
	c3.55,4.37,5.54,9.11,3.18,14.67c-7.43-0.17-15.65-0.56-23.87-0.49c-5.87,0.05-11.73,0.87-17.6,1.05
	c-6.23,0.19-12.47,0.04-19.2,0.04c2.48-2.79,2.8-5.82,1.91-8.46c-0.88-2.61-2.94-4.84-4.55-7.18c-0.19-0.27-0.81-0.34-1.23-0.35
	c-3.13-0.06-6.27-0.09-9.4-0.1c-3.1-0.01-6.21,0-9.66,0c2.76,4.4,3.5,15.16,3.5,15.16h3.89c0,0,0.01-0.34,0.02-0.19
	c-5.04,0.27-10.08,0.63-15.13,0.78c-7.19,0.21-14.39,0.32-21.59,0.35c-6.32,0.02-12.63-0.21-18.95-0.2
	c-4.56,0.01-9.11,0.18-13.66,0.44c-0.58,0.03-1.15,0.98-1.65,1.56c-0.15,0.18-0.1,0.58-0.06,0.88c0.96,8.22-0.81,16.34-0.98,24.52
	c-0.12,5.53-0.17,11.14-2.65,16.19c-2.05,4.17-4.67,8.08-7.2,12c-3.97,6.16-7.92,12.35-12.18,18.31c-2.1,2.94-5.21,5.17-7.23,8.15
	c-2.77,4.09-6.46,6.68-10.6,9.23c-6.52,4.01-12.68,1.06-16.97-2.97c-5.03-4.72-10.18-9.33-14.98-14.28
	c-3.57-3.67-6.73-7.74-9.95-11.73c-1.91-2.37-4.02-4.74-5.24-7.47c-1.83-4.09-3.05-8.47-4.36-12.77c-1.17-3.83-1.92-7.8-3.19-11.59
	c-1.85-5.49-2.81-11.08-2.66-16.86c0.02-0.75,0.05-1.49,0.06-2.24c0.06-3.34,0.07-3.41-3.26-3.9c-6.73-1-13.45-2.34-20.22-2.76
	c-9.61-0.6-19.28-1.39-28.9,0.34c-1.64,0.3-3.39,0.04-5.07,0.04c-2.17-5.52-1.46-10.93,0.75-16.4c-0.76-0.18-1.23-0.39-1.71-0.4
	c-3.94-0.14-7.89-0.34-11.83-0.27c-0.92,0.02-2.17,0.83-2.67,1.65c-3.17,5.18-1.5,16.62-1.5,16.62h-22.17c0,0-0.07-12.74,4.71-18.04
	c-1.12-0.15-1.75-0.32-2.38-0.31c-5.44,0.06-10.87,0.14-16.31,0.23c-0.43,0.01-0.97,0.06-1.25,0.32c-2.99,2.75-5.77,5.7-6.45,9.9
	c-0.3,1.83-0.05,5.9-0.05,5.9H77.12c0,0,3.34-1.04,3.16-4.27c-0.23-4.26,1.08-7.9,4.15-10.9c0.53-0.51,0.99-1.1,1.47-1.65
	c0.03-0.03-0.02-0.13-0.1-0.53c-2.26,0-4.6-0.02-6.94,0.01c-1.57,0.02-3.18,0.39-4.69,0.12c-5.6-1-9.02,2.11-11.82,6.2
	c-1.07,1.55-1.71,3.46-2.25,5.3c-0.51,1.72-0.5,3.5,2.02,4.06c-7.06-1.82-14.68-0.53-21.03-4.79c0.91-5.68,1.69-6.86,9.52-14.52
	c-0.52-0.3-0.96-0.62-1.46-0.82c-4.24-1.77-8.49-3.53-12.75-5.26c-0.47-0.19-1.01-0.4-1.49-0.35c-4,0.38-9.41,5.52-10,9.54
	c-0.13,0.85,0.11,1.76,0.17,2.61c-9-1.58-20.25-9.9-17.55-25.39c0.21,2.59,0.33,5.52,0.72,8.43c0.17,1.29,0.78,2.55,1.36,3.74
	c0.47,0.97,1.22,1.38,1.98,0.15c2.38-3.87,6.1-6.04,10.1-7.76c1.63-0.7,1.56-1.41,0.65-2.64c-0.95-1.29-1.76-2.68-2.63-4.03
	c0.16-0.12,0.32-0.25,0.48-0.37c1.14,1.55,2.19,3.18,3.43,4.64c1.52,1.78,3.04,3.6,4.83,5.1c6.92,5.78,15.22,8.75,23.59,11.7
	c10.28,3.62,20.73,4.16,31.49,3.6c6.72-0.35,13.52,0.69,20.28,1.07c1.79,0.1,3.58,0.1,5.37,0.09c10.96-0.12,21.93-0.31,32.89-0.38
	c9.31-0.06,18.62,0.05,27.93,0.04c4.39,0,8.79-0.11,13.18-0.15c0.97-0.01,1.96-0.03,2.9,0.16c6.26,1.26,12.52,0.78,18.84,0.45
	c5.56-0.29,11.16,0.26,16.74,0.17c1.17-0.02,2.53-0.98,3.44-1.87c2.36-2.36,4.29-5.2,6.83-7.33c3.05-2.55,6.34-4.99,9.9-6.69
	c7.56-3.62,15.3-6.92,23.1-10.01c4.69-1.86,9.57-1.84,14.36,0.22c7.71,3.3,15.72,5.99,23.11,9.88c3.98,2.09,7.05,6.02,10.25,9.39
	c1.07,1.13,1.82,1.77,3.45,1.75c8.12-0.09,16.23-0.01,24.35,0c7.36,0.01,14.72-0.05,22.08,0.02c6.78,0.07,13.56,0.31,20.34,0.4
	c5.47,0.07,10.96-0.25,16.42,0.07c8.02,0.47,16.01,1.35,24.03,2.05c-0.06,0.45-0.35,1.11-0.16,1.3c3.3,3.42,3.32,11.47,3.32,11.47
	h16.1c0,0,0.53,0.33,0.66,0.22c0.56-0.49,1.37-0.96,1.54-1.58c0.97-3.47-0.67-6.16-2.8-8.7c-1.61-1.92-3.29-3.41-6.09-2.66
	c-1.06,0.28-2.22,0.31-3.33,0.28C429.45,133.86,426.35,133.7,423.24,133.58z M271.67,115.91c-1.78,0.44-3.69,0.61-5.3,1.38
	c-3.24,1.55-6.88,2.64-8.76,6.18c-0.67,1.26-0.43,4.52,0.53,4.55c2.2,0.09,4.43-0.34,6.63-0.62c0.09-0.01,0.19-0.7,0.13-1.04
	c-0.57-2.84,1.77-3.48,3.47-4.48c1.75-1.03,2.14,0.98,3.1,1.69c0.18,0.13,0.34,0.29,0.51,0.43c2.57,2.15,2.66,2.5,0.5,4.96
	c-1.08,1.23-1.02,2.05-0.1,3.44c1.59,2.4,2.77,5.06,4.05,7.65c0.24,0.49,0.25,1.19,0.12,1.74c-0.44,1.83-7.95,5.93-9.7,5.35
	c-2.03-0.67-4.83-5.24-4.64-7.33c0.07-0.79-0.32-1.63-0.5-2.45c-1.6,0.39-3.3-1.37-4.91,0.68c-3.18,4.05-2.64,8.25-0.22,12
	c2.04,3.16,5.16,5.76,9.5,4.69c2.42-0.6,4.76-1.63,7.05-2.65c3.86-1.72,7.67-3.58,11.49-5.38c2.08-0.98,2.88-2.58,2.7-4.88
	c-0.3-3.77-1.62-7.27-4.06-9.94c-2.41-2.63-2.68-4.85-0.87-7.7c0.9-1.41,0.76-2.77-0.64-3.96
	C278.85,117.79,275.75,115.89,271.67,115.91z M288.87,186.73c1.33-0.56,3.65-1.17,5.54-2.43c2.21-1.46,3.97-3.57,6.05-5.26
	c2.75-2.25,3.62-5.14,2.6-8.36c-0.93-2.93-2.11-5.89-3.75-8.47c-3.44-5.42-12.26-7.86-18.15-1.79c-2.85,2.94-5.02,6.57-7.37,9.98
	c-1.43,2.08-1.93,4.54-0.54,6.74C276.63,182.49,281.36,185.91,288.87,186.73z M231.04,174.8c-0.32,4.8,2.13,7.99,5.96,10.23
	c1.25,0.73,2.94,1.32,4.29,1.12c4.96-0.73,8.86-3.77,12.54-6.87c2.66-2.24,3.96-7.81,1.23-10.69c-2.77-2.92-5.85-5.3-9.8-6.22
	c-2.92-0.68-6.18-1.26-8.66,0.65C232.86,165.9,231.15,170.09,231.04,174.8z M223.41,155.77c7.52,0.67,10.78-4.93,11.85-10.26
	c0.84-4.19-1.29-7.27-5.37-8.08c-3.04-0.6-6.17-0.79-9.26-1.14c-0.42-0.05-0.96-0.04-1.27,0.19c-5.64,4-8.19,9.07-5.29,15.74
	c0.79,1.82,2.01,3.03,4.23,3.03C220.01,155.25,221.71,155.59,223.41,155.77z M341.57,147.67c7.01,0,13.39-0.01,19.77,0.01
	c1.51,0,1.86-1.07,2.04-2.18c0.76-4.64,0.32-9.04-2.92-12.76c-0.38-0.43-1-0.9-1.52-0.92c-4.76-0.18-9.52-0.28-14.28-0.35
	c-1.14-0.02-2.28,0.21-3.75,0.35C344.2,137.03,343.27,142.12,341.57,147.67z M319.17,147.95c2.71-0.25,2.68-0.25,3.55-2.79
	c1.28-3.75,1.28-7.36-0.7-10.95c-0.99-1.8-2.65-2.74-4.26-2.61c-3.81,0.31-7.6,1.08-11.35,1.89c-1.74,0.38-2.6,1.85-2.73,3.66
	c-0.25,3.58,2.57,8.03,6.15,9.03C312.88,147.03,316.06,147.38,319.17,147.95z M198.03,136.99c-0.89-0.09-1.39-0.15-1.9-0.18
	c-2.86-0.18-5.77-0.09-8.58-0.58c-3.28-0.58-5.35,0.15-6.3,3.38c-0.75,2.53-1.2,5.2-1.37,7.84c-0.24,3.81-0.07,3.82,3.66,3.85
	c0.44,0,0.88,0.15,1.32,0.15c3.45,0.01,6.9,0.01,10.52,0.01C194.23,146.51,195.84,141.86,198.03,136.99z M270.89,193.86
	c-0.04-0.25,0.03-1.1-0.32-1.69c-1.21-2.03-2.54-3.98-3.93-5.89c-0.07-0.09-1.48,0.39-1.6,0.8c-0.75,2.68-1.26,5.43-1.98,8.13
	c-0.39,1.46,0.27,2.1,1.49,2.45c0.49,0.14,1.05,0.05,1.54,0.17C269.53,198.68,270.81,197.76,270.89,193.86z M263.09,213.03
	c-0.18-2.37,0.87-4.92-1.13-7.07c-2.8,1.02-2.96,1.36-1.97,3.99c0.23,0.62,0.51,1.25,0.6,1.9
	C260.81,213.36,261.59,213.67,263.09,213.03z M272.86,205.92c-0.56,2.63-1.09,4.67,1.38,5.92c2.04-0.84,3.22-2.86,2.19-4.66
	C275.97,206.38,274.17,206.34,272.86,205.92z M271.62,207.37c0.01,0,0.02,0,0.04,0c0-0.3-0.02-0.6,0-0.89
	c0.14-1.84-1.08-2.44-2.5-2.25c-0.42,0.06-0.74,1.54-0.93,2.41c-0.11,0.47,0.22,1.02,0.2,1.52c-0.03,1.26,0.37,2.48,1.69,2.32
	c0.59-0.07,1.03-1.58,1.49-2.45C271.7,207.86,271.62,207.59,271.62,207.37z M267.52,209.37c0.02,0,0.03,0,0.05,0
	c0-0.44,0.15-0.96-0.03-1.32c-0.37-0.72-0.85-1.85-1.39-1.92c-1.15-0.14-2.17,0.51-2.02,1.99c0.11,1.09,0.15,2.22,0.48,3.24
	c0.13,0.41,0.99,0.86,1.46,0.81c0.52-0.05,1.15-0.57,1.41-1.06C267.71,210.65,267.52,209.96,267.52,209.37z M272.49,211.28
	c-1.73,0.29-3.47,0.27-3.57,0.67c-0.31,1.18-0.14,2.58,0.22,3.77c0.12,0.39,1.4,0.43,2.15,0.63
	C271.63,214.93,271.97,213.51,272.49,211.28z M277.59,208.56c-0.3,2.65,0.9,3.28,2.46,3.39c1.48,0.1,1.88-0.95,1.88-2.19
	c-0.01-1.9-1.59-1.98-2.82-2.08C278.5,207.63,277.83,208.41,277.59,208.56z M276.69,215.84c0.25,0.63,0.6,1.56,0.96,2.49
	c0.69-0.85,1.41-1.68,2.06-2.55c0.21-0.28,0.22-0.7,0.38-1.02c0.66-1.33-0.03-1.95-1.22-2.19
	C276.01,211.99,277.42,214.35,276.69,215.84z M248.69,223.88c1.09,2.39,2.54,2.28,3.81,1c0.45-0.46,0.45-2.19,0-2.56
	C250.3,220.46,250.3,223.8,248.69,223.88z M259.42,214.45c-0.98,1.06-1.98,1.87-1.87,2.06c0.54,0.94,1.34,1.74,2.14,2.5
	c0.05,0.04,1.26-0.8,1.2-1.04C260.64,216.94,260.1,215.99,259.42,214.45z M288.59,211.06c-2.33,0.29-3.22,1.53-3.95,2.85
	c-0.15,0.27,0.29,1.23,0.64,1.34c0.53,0.18,1.57,0.1,1.76-0.23C287.65,213.94,287.98,212.69,288.59,211.06z M256.36,211.37
	c-0.27-0.08-0.53-0.17-0.8-0.25c-0.5,0.82-1.52,1.73-1.39,2.42c0.24,1.23,1.08,2.48,3.15,1.8
	C256.98,213.97,256.67,212.67,256.36,211.37z M296.01,218.08c-2.57-0.03-3.97,1.16-4.53,3.64
	C294.02,221.8,294.77,219.94,296.01,218.08z M286.35,216.96c-0.35-0.29-0.45-0.4-0.57-0.47c-1.06-0.58-1.97-0.43-2.14,0.85
	c-0.15,1.08,0.07,2.21,0.12,3.32c0.59-0.62,1.26-1.19,1.76-1.88C285.9,218.27,286.07,217.61,286.35,216.96z M281.44,214.53
	c3.12-1.09,3.77-3.2,1.7-4.61C282.56,211.5,282,213.01,281.44,214.53z M292.49,214.17c-1.1-0.61-1.62-1.06-2.21-1.19
	c-1.28-0.29-1.82,0.57-1.69,1.63c0.06,0.51,0.97,1.39,1.23,1.31C290.61,215.67,291.27,215.02,292.49,214.17z M289.46,221.56
	c0.87-0.98,1.74-1.85,2.43-2.84c0.14-0.21-0.35-1.25-0.61-1.27C289.93,217.34,288.65,219.97,289.46,221.56z M276.3,212.92
	c-0.32-0.21-0.64-0.41-0.96-0.62c-0.78,0.71-1.57,1.43-2.35,2.14c0.76,0.3,1.86,1.06,2.2,0.81
	C275.8,214.8,275.96,213.73,276.3,212.92z M248.45,223.59c0.79-1.6,0.53-2.79-0.79-3.36c-0.5-0.21-1.4,0.54-2.51,1.01
	C246.56,222.25,247.39,222.84,248.45,223.59z M251.42,217.11c-0.89,0.39-1.64,0.5-1.97,0.94c-0.36,0.48-0.54,1.31-0.41,1.9
	c0.09,0.42,0.81,0.7,1.25,1.04c0.26-0.53,0.6-1.05,0.77-1.61C251.24,218.78,251.27,218.13,251.42,217.11z M298.17,215.31
	c-0.9-0.43-1.57-1.02-1.94-0.87c-0.63,0.26-1.06,0.98-1.58,1.51c0.52,0.39,1.15,1.18,1.54,1.07
	C296.84,216.85,297.32,216.1,298.17,215.31z M263.8,214.59c-0.2-0.16-0.39-0.33-0.59-0.49c-0.64,0.48-1.83,0.96-1.82,1.42
	c0.01,0.89,0.7,1.77,1.11,2.65c0.21-0.04,0.41-0.07,0.62-0.11C263.35,216.91,263.58,215.75,263.8,214.59z M286.67,219.78
	c0.26,0.14,0.52,0.28,0.78,0.41c0.58-1.06,1.17-2.12,1.75-3.17c-0.39-0.06-0.87-0.3-1.16-0.16
	C286.8,217.46,286.12,218.38,286.67,219.78z M268.27,214.54c-0.88-0.76-1.37-1.44-1.62-1.36c-0.71,0.23-1.32,0.77-1.97,1.19
	c0.29,0.41,0.64,1.21,0.87,1.17C266.3,215.44,267.01,215.04,268.27,214.54z"/>
<path style="fill:#FFFFFF;" d="M71.84,88.24c-0.42-5.69-0.77-12.01-1.37-18.3c-0.5-5.27,2.08-8.69,6.08-11.59
	c7.4-5.36,14.75-10.78,22-16.34c1.75-1.34,3.47-1.31,5.23-0.88c6.84,1.68,13.67,3.44,20.44,5.38c0.8,0.23,1.6,1.63,1.8,2.61
	c0.59,2.83,0.82,5.73,1.32,8.58c0.43,2.5-0.61,4.01-3.18,4.27c-2.15,0.21-4.34,0.18-6.44,0.62c-2.59,0.54-3.68-0.86-4.61-2.81
	c-0.92-1.94-1.82-3.9-2.86-5.78c-0.74-1.33-2.02-2.38-3.51-1.54c-6.08,3.41-12.07,7-18.1,10.52c-1.24,0.72-1.32,1.73-1.05,3.04
	c1.57,7.65,3.08,15.31,4.59,22.97c1.11,5.63,1.09,5.73,6.8,6.24c3.7,0.33,7.44,0.35,11.16,0.36c0.63,0,1.56-0.63,1.82-1.21
	c0.69-1.55,1.06-3.25,1.63-4.86c0.62-1.73-0.02-2.77-1.55-3.63c-1.93-1.1-3.73-2.43-5.62-3.58c-1.23-0.75-1.29-1.47-0.27-2.44
	c1.24-1.18,2.53-2.33,3.59-3.66c1.62-2.04,3.48-2.39,5.92-1.66c3.83,1.15,7.73,2.04,11.59,3.09c2.8,0.76,2.83,1.02,1.83,3.62
	c-1.77,4.57-3.31,9.24-5.14,13.78c-1.53,3.78-3.17,7.54-5.12,11.11c-0.57,1.05-2.39,2.05-3.62,2.02
	c-7.51-0.18-15.01-0.65-22.51-1.03c-4.99-0.25-9.98-0.41-14.95-0.78c-5.74-0.43-5.89-1.85-5.9-6.05
	C71.83,96.48,71.84,92.68,71.84,88.24z M79.88,68.37c-0.81,1.43-1.63,2.26-1.65,3.11c-0.01,0.62,1.33,1.9,1.55,1.79
	c0.98-0.46,1.77-1.32,2.64-2.03C81.75,70.49,81.08,69.73,79.88,68.37z M109.18,104.63c1.18-1.11,1.96-1.84,2.74-2.58
	c-0.92-0.63-1.8-1.62-2.79-1.75c-0.58-0.08-1.72,1.15-1.87,1.93C107.15,102.78,108.29,103.57,109.18,104.63z M119.2,56.99
	c1.11-0.99,1.82-1.62,2.53-2.25c-0.94-0.68-1.81-1.59-2.86-1.92c-0.4-0.13-1.83,1.23-1.72,1.61
	C117.38,55.29,118.3,55.95,119.2,56.99z M87.82,53.73c-1,0.96-1.91,1.51-2.21,2.29c-0.14,0.36,1.09,1.77,1.43,1.68
	c0.98-0.26,1.82-1.04,2.71-1.61C89.22,55.44,88.68,54.78,87.82,53.73z M103.21,44.52c-0.72,0.9-1.69,1.77-1.56,2.01
	c0.44,0.78,1.22,1.72,2,1.85c0.59,0.1,1.38-0.92,2.08-1.44C104.98,46.22,104.23,45.5,103.21,44.52z M93.68,101.5
	c0-0.28-0.01-0.57-0.01-0.85c-1.03-0.35-2.04-0.86-3.1-0.99c-0.39-0.05-0.89,0.77-1.34,1.2c0.78,0.62,1.48,1.53,2.36,1.76
	C92.15,102.76,92.97,101.9,93.68,101.5z M116.26,78.78c-0.72,0.88-1.6,1.6-1.48,1.89c0.31,0.74,1.05,1.77,1.65,1.79
	c0.73,0.02,1.49-0.87,2.24-1.37C117.99,80.45,117.32,79.8,116.26,78.78z M80.23,92.16c0.39-0.2,0.77-0.39,1.16-0.59
	c0.66-0.55,1.31-1.1,1.97-1.65c-0.59-0.47-1.26-1.39-1.76-1.31c-0.76,0.13-1.65,0.83-2.01,1.53C79.36,90.59,79.99,91.47,80.23,92.16
	z M119.74,87.55c-0.6,1-1.19,1.59-1.28,2.26c-0.05,0.38,0.71,0.87,1.1,1.3c0.61-0.55,1.35-1.03,1.74-1.71
	C121.41,89.22,120.5,88.44,119.74,87.55z"/>
<path style="fill:#FFFFFF;" d="M421.2,61.57c0.3,5.57,0.58,11.14,0.91,16.7c0.08,1.45-0.32,2.4-1.66,3.28
	C413.6,86,406.97,90.77,400,95c-1.17,0.71-3.76-0.32-5.43-1.11c-5.85-2.77-8.08-8.66-11.34-13.66c-1.05-1.61-2.14-3.21-3.17-4.83
	c-2.19-3.44-4.55-6.8-6.45-10.4c-0.77-1.46-0.91-3.49-0.73-5.19c0.67-6.21,1.57-12.39,2.42-18.58c0.48-3.46,1.03-6.91,1.59-10.36
	c0.3-1.82,1.4-3.01,3.07-3.8c1.68-0.8,3.35-1.63,4.92-2.62c3.97-2.49,8.02-2.79,12.55-1.47c4.89,1.42,9.98,2.12,14.95,3.27
	c0.73,0.17,1.44,0.95,1.91,1.61c1.07,1.51,1.78,3.33,3.02,4.66c2.18,2.34,2.26,5.06,2.14,7.92c-0.06,1.36-0.5,2.18-2.17,1.99
	c-2.35-0.27-5.13,0.44-6.98-0.6c-1.77-0.99-2.81-3.58-3.75-5.66c-1.14-2.53-2.79-3.3-5.45-2.93c-2.79,0.38-5.65,0.3-8.45,0.63
	c-0.73,0.09-1.76,0.83-2,1.5c-2.79,7.93-5.09,16-5.93,24.38c-0.16,1.62,0.56,3.89,1.71,4.99c5.31,5.1,10.89,9.94,16.44,14.78
	c1.5,1.31,5.79-0.18,6.34-2.12c1-3.5,1.84-7.04,2.83-10.54c0.35-1.23-0.08-1.73-1.18-2.16c-2.21-0.87-4.32-2.02-6.55-2.8
	c-2.1-0.74-2.9-2-2.39-4.14c0.2-0.85,0.29-1.75,0.58-2.57c1.39-3.83,1.42-3.89,5.32-3c3.83,0.87,7.62,1.93,11.45,2.84
	c1.75,0.41,2.78,1.11,2.32,3.17c-0.24,1.07-0.04,2.23-0.04,3.35C421.43,61.56,421.31,61.56,421.2,61.57z M395.28,87.31
	c1.23-1.52,2.45-2.37,2.48-3.25c0.02-0.74-1.25-2-2.12-2.17c-1.2-0.24-2.97,0.19-2.82,1.9C392.9,84.79,394.09,85.69,395.28,87.31z
	 M419.34,76.87c-1.31-0.91-2.29-1.97-2.69-1.78c-1.21,0.56-2.19,1.59-3.27,2.45c0.8,0.63,1.72,1.88,2.37,1.75
	C416.85,79.07,417.79,77.99,419.34,76.87z M412.41,36.98c1.3-1.34,2.07-2.15,2.85-2.95c-0.94-0.66-1.81-1.7-2.83-1.86
	c-0.7-0.11-1.58,1-2.39,1.56C410.7,34.62,411.35,35.52,412.41,36.98z M380.36,49.57c0.95-1.42,1.76-2.17,1.87-3.01
	c0.05-0.42-1.25-1.48-1.83-1.4c-0.77,0.11-1.87,0.95-2,1.64C378.29,47.38,379.33,48.19,380.36,49.57z M383.59,34.54
	c0.82-1.04,1.82-1.91,1.68-2.21c-0.41-0.82-1.23-1.83-2.01-1.94c-0.56-0.08-1.31,1.16-1.97,1.82
	C381.92,32.85,382.56,33.5,383.59,34.54z M380.92,63.9c0-0.27-0.01-0.54-0.01-0.81c-0.75-0.38-1.51-1.07-2.24-1.04
	c-0.6,0.02-1.72,1.08-1.63,1.38c0.24,0.78,1.01,1.94,1.58,1.94C379.38,65.37,380.15,64.43,380.92,63.9z M411.92,57.79
	c0.02,2.15,0.72,3.22,2.56,2.82c0.61-0.13,1.62-1.07,1.53-1.39C415.39,56.91,413.47,58.41,411.92,57.79z M397.51,26.42
	c-0.72,0.66-1.21,1.1-1.69,1.54c0.82,0.6,1.57,1.45,2.48,1.7c0.47,0.13,1.23-0.8,1.87-1.26C399.34,27.8,398.53,27.18,397.51,26.42z"
	/>
<path style="fill:#FFFFFF;" d="M298.1,20.61c2.18-0.89,4.28-1.74,6.46-2.62c3.37,7.69,8.95,13.67,13.51,20.33
	c0.04,0.06,0.09,0.12,0.14,0.18c1.02,1.24,1.97,3.43,3.08,3.51c2.18,0.17,4.46-0.77,6.66-1.42c0.46-0.13,0.89-0.93,1.03-1.5
	c1.25-5.25,2.43-10.52,3.66-15.78c0.09-0.41,0.38-0.77,0.56-1.1c3.89,0.92,7.67,1.81,11.45,2.71c-1.65,10.48-3.39,20.56-4.75,30.7
	c-0.66,4.91-0.84,9.92-0.77,14.88c0.12,8.65-0.53,17.18-2.68,25.58c-0.7,2.73-1.9,3.47-4.03,2.16c-8.6-5.27-17.14-10.66-25.72-15.97
	c-1.37-0.85-1.78-1.8-1.04-3.31c1.19-2.46,2.25-4.98,3.37-7.47c5.98,2.22,10.79,6.71,17.11,8.88c0.35-10.01,0.67-19.42,1-29.08
	c-4.9,1.29-9.28,2.31-13.57,3.63c-1.75,0.54-2.84,0.44-3.56-1.31c-1.53-3.76-3.16-7.49-4.58-11.29c-2.15-5.75-4.18-11.54-6.21-17.34
	C298.73,23.6,298.48,22.14,298.1,20.61z M316.06,45.11c0.04-1.94-1.29-3.7-2.73-3.41c-1,0.21-2.32,1.17-2.59,2.07
	c-0.48,1.58,1.37,3.43,3.01,3.43C315.32,47.2,316.08,46.38,316.06,45.11z M334.45,86.79c-1.56-1.14-2.37-2.16-3.34-2.35
	c-1.75-0.34-2.47,0.88-2.59,2.55c-0.14,1.94,1.19,2.72,2.6,2.53C332.1,89.38,332.93,88.1,334.45,86.79z M334.13,59.07
	c-1.94,0.65-3.56,1.17-3.19,2.89c0.19,0.87,1.59,1.92,2.58,2.08c1.54,0.26,2.58-1.06,2.41-2.49
	C335.82,60.64,334.73,59.84,334.13,59.07z M340.44,30.57c-0.04-0.33-0.08-0.66-0.11-0.99c-0.88-0.33-1.74-0.74-2.65-0.97
	c-1.72-0.43-2.33,0.88-2.05,2.02c0.22,0.88,1.55,2.17,2.23,2.08C338.79,32.59,339.58,31.34,340.44,30.57z M315.15,78.24
	c-1.02,1.08-1.64,1.74-2.26,2.4c0.84,0.78,1.69,1.55,2.53,2.33c0.6-0.73,1.62-1.43,1.68-2.2C317.15,80.11,316.08,79.38,315.15,78.24
	z M334.01,48.18c1.01-1.25,1.95-1.9,2.02-2.62c0.13-1.55-1.16-1.81-2.44-1.89c-1.36-0.09-2.13,0.65-1.84,1.82
	C331.95,46.31,332.92,46.94,334.01,48.18z M307.33,26.23c-1.09-0.81-1.83-1.74-2.31-1.62c-0.85,0.21-2.64,0.07-2.06,1.8
	c0.26,0.79,1.19,1.82,1.89,1.87C305.49,28.33,306.21,27.21,307.33,26.23z"/>
<path style="fill:#FFFFFF;" d="M226.01,74.66c4.67,0.26,9.34,0.62,14.01,0.75c2,0.06,2.67,0.87,2.5,2.73
	c-0.32,3.4-0.65,6.81-0.87,10.22c-0.09,1.4,0.07,2.83,0.2,4.23c0.16,1.81-0.59,2.62-2.4,2.51c-10.25-0.58-20.5-1.18-30.76-1.68
	c-1.75-0.09-2.49-0.94-2.51-2.45c-0.08-8.84-0.23-17.69-0.06-26.53c0.07-3.68-0.3-7.04-2.38-10.17c-1.18-1.78-2.13-3.73-3.08-5.65
	c-2.64-5.36-5.26-10.74-7.83-16.14c-0.91-1.91-0.01-3.65,2.09-4.22c2.51-0.68,5.03-1.32,7.54-1.98c1.86-0.49,2.92,0.15,3.84,1.92
	c3.73,7.16,7.74,14.18,11.42,21.37c0.83,1.62,1,3.72,0.97,5.6c-0.06,3.49-0.54,6.97-0.73,10.46c-0.12,2.11-0.15,4.24,0,6.35
	c0.1,1.38,0.73,2.61,2.47,2.61c1.86,0,3.72,0,5.58,0C226,74.61,226.01,74.64,226.01,74.66z M231.69,82.18
	c-1.71-0.05-2.81,0.46-2.8,2.37c0.01,1.72,0.64,2.67,2.48,2.64c1.82-0.03,3.12-1.14,3.09-2.76
	C234.44,82.53,233.27,82.05,231.69,82.18z M215.68,83.92c0.02-1-0.64-1.77-2.13-1.79c-1.65-0.02-2.77,1.01-2.57,2.37
	c0.12,0.82,1.58,1.8,2.61,2.05C215.03,86.91,215.66,85.77,215.68,83.92z M204.4,36.02c-0.01-0.33-0.01-0.65-0.02-0.98
	c-0.69-0.53-1.55-1.61-2.04-1.47c-1.02,0.3-2.36,1.09-2.64,1.98c-0.42,1.33,0.88,2.26,2.13,2.09
	C202.74,37.51,203.55,36.58,204.4,36.02z M214.64,67.45c-1.19-0.76-2.08-1.67-2.45-1.5c-0.91,0.45-1.59,1.38-2.36,2.12
	c0.66,0.66,1.55,1.99,1.93,1.86C212.69,69.62,213.38,68.61,214.64,67.45z M209.98,49.16c-0.86,0.73-1.45,1.23-2.03,1.72
	c0.61,0.58,1.22,1.61,1.83,1.61c0.7,0,1.39-0.91,2.09-1.43C211.32,50.51,210.77,49.96,209.98,49.16z"/>
<path style="fill:#FFFFFF;" d="M178.93,60.52c1.02,0.18,2.01,0.2,2.89,0.53c2.56,0.97,5.08,2.04,7.61,3.1
	c2.45,1.03,2.69,1.53,1.61,3.9c-4.64,10.2-9.2,20.44-14.11,30.51c-0.59,1.21-3.14,2.14-4.73,2.05c-5.56-0.29-11.12-0.96-16.63-1.78
	c-1.28-0.19-3.05-1.27-3.48-2.37c-2.89-7.44-5.65-14.95-8.06-22.56c-0.53-1.69,0.43-3.88,0.8-5.82c0.84-4.38,1.85-8.72,2.56-13.12
	c0.33-2.04,1.44-2.17,2.98-1.93c0.5,0.08,0.97,0.32,1.45,0.51c1.68,0.65,4.19,0.87,4.82,2.07c0.69,1.32-0.28,3.56-0.68,5.37
	c-0.5,2.24-1.13,4.45-1.76,6.66c-1.33,4.6,1.52,12.47,8.5,12.74c0.15,0.01,0.3,0.01,0.45,0.02c5.38,0.29,5.29,0.25,7.77-4.67
	c2.14-4.24,4.51-8.37,6.76-12.55C178.09,62.41,178.42,61.6,178.93,60.52z M157.03,86.11c-0.38,0.52-1.41,1.29-1.42,2.06
	c-0.02,1.75,1.55,2.25,2.98,2.38c1.15,0.11,2.03-0.46,1.96-1.84C160.46,86.92,159.27,86.38,157.03,86.11z M171.56,89.28
	c-1.71,0.57-3.38,0.36-3.27,2.33c0.09,1.76,1.74,2.13,2.97,1.77c0.96-0.28,1.65-1.49,2.46-2.28
	C173.01,90.49,172.28,89.89,171.56,89.28z M182.59,65.89c-0.36,0.06-0.71,0.12-1.07,0.18c-0.23,1.02-0.7,2.07-0.57,3.04
	c0.05,0.39,1.48,0.9,2.19,0.79c0.58-0.1,1.57-1.3,1.44-1.56C184.13,67.42,183.29,66.69,182.59,65.89z M177.39,76.18
	c-0.86,1.04-1.73,1.65-1.8,2.35c-0.05,0.45,1.21,1.53,1.66,1.42c0.79-0.2,1.41-1.09,2.1-1.69
	C178.82,77.69,178.28,77.12,177.39,76.18z M152.03,75.15c-1.22-0.75-1.76-1.27-2.39-1.42c-1.02-0.24-2.12,0.02-1.94,1.33
	c0.09,0.65,0.94,1.65,1.49,1.67C149.89,76.76,150.63,75.98,152.03,75.15z M153.46,60.17c0.01-0.31,0.01-0.62,0.02-0.92
	c-0.99-0.38-1.98-0.8-3-1.08c-0.08-0.02-0.66,0.87-0.57,1.22c0.16,0.63,0.68,1.66,1.02,1.65C151.78,61,152.62,60.49,153.46,60.17z"
	/>
<path style="fill:#FFFFFF;" d="M466.68,70.02c-1.03,0.72-2.07,1.43-3.35,2.32c2.55,1.18,1.96,4.33,7.89,3.89
	c-2.45,1.15-4.24,1.07-5.61-0.59c-0.62-0.75-1.7-1.38-2.57-2.07c0.68,1.3,2.03,2.38,2.95,3.56c0.99,1.28,2.34,1.29,4.1,0.63
	c2.33-0.88,4.58-1.83,6.92-2.69c0.65-0.24,1.89-0.54,2.26-0.39c2.16,0.91,5.01,1.52,4.89,3.49c-0.11,1.85,0.05,3.72,0.43,5.56
	c0.28,1.36-0.74,2.06-2.91,2.36c-6.88,0.96-13.77,1.9-20.68,2.8c-2.21,0.29-3.66-0.16-4.47-1.45c-0.92-1.46-2.15-2.88-3.58-4.21
	c-3.04-2.83-6.19-5.64-9.5-8.38c-1.9-1.57-1.97-2.7,1.5-3.54c0.85-0.21,1.48-0.7,2.2-1.07c6-3.05,12.01-6.09,18-9.15
	c1.42-0.73,3.27-1.36,4.08-2.26c1.88-2.11,3.24-4.36,4.99-6.8c-3.94-0.71-7.55-1.19-10.88-2.01c-2.9-0.72-3.98,0-4.93,1.24
	c-0.76,0.99-1.52,1.98-2.31,2.96c-1.05,1.32-2.45,1.36-4.94,0.86c-4.08-0.81-5.62-2.08-4.79-4.37c0.23-0.63,0.06-1.33-0.18-1.97
	c-0.53-1.45,1.12-2.07,3.07-2.58c6.99-1.81,14.06-3.53,20.98-5.43c1.7-0.47,2.74-0.34,3.65,0.33c4.74,3.49,9.49,6.97,14.02,10.54
	c0.66,0.52,0.71,1.62,0.15,2.19c-2.48,2.53-5.24,4.97-7.99,7.42c-3.13,2.79-7.02,5.1-12.64,6.52c-2.1,0.53-3.79,1.59-5.51,2.5
	c-0.63,0.33-0.8,0.92-1.18,1.39c0.25,0.11,0.51,0.22,0.76,0.34C463.21,71.32,464.95,70.67,466.68,70.02L466.68,70.02z M464.29,81.18
	c-1.03-0.36-2.05-0.99-3.1-1c-0.83-0.01-2.25,0.68-2.37,1.14c-0.11,0.43,1.15,0.97,2.4,1.9C462.64,82.28,463.46,81.73,464.29,81.18z
	 M473.3,81.73c-0.13,0.15,1.48,1.07,1.98,1c1.31-0.19,2.45-0.73,3.66-1.14c-0.79-0.49-1.58-0.97-2.86-1.76
	C474.82,80.64,473.82,81.12,473.3,81.73z M455.32,74.28c0.44-0.23,0.27-1.3-0.25-1.51c-1.98-0.79-3.58-0.18-5.31,0.85
	C451.67,74.5,453.26,75.36,455.32,74.28z M472.25,45.52c-0.97-0.39-1.87-0.99-2.94-1.09c-0.55-0.05-1.86,0.74-1.94,1.2
	c-0.06,0.35,1.28,0.77,2.52,1.45C470.98,46.36,471.62,45.94,472.25,45.52z M479.3,53.68c0.7,0.25,1.39,0.71,2.09,0.71
	c1.84,0.02,2.74-0.51,1.81-2.08C481.71,52.83,480.5,53.25,479.3,53.68z M453.28,50.25c0.36,0.05,1.1-0.65,1.66-1
	c-0.73-0.33-1.39-0.77-2.22-0.94c-0.4-0.08-1.14,0.37-2.24,0.75C451.75,49.64,452.43,50.12,453.28,50.25z M467.75,63.06
	c0.35,0.37,0.83,1.08,1.04,1.05c1.1-0.13,2.12-0.43,3.17-0.68c-0.24-0.31-0.47-0.61-0.71-0.92
	C470.09,62.71,468.92,62.88,467.75,63.06z"/>
<path style="fill:#FFFFFF;" d="M499.09,68.44c0.93,0.48,1.82,0.69,2.32,1.24c3.57,3.96,7.25,7.85,10.52,12.05
	c4.46,5.73,7.16,12.46,10.03,19.06c2.99,6.87,3,14.16,3.19,21.47c0.15,5.6-3.27,8.6-7.3,11.37c-0.92,0.63-1.82,1.28-2.55,1.79
	c-0.17-0.78-0.08-1.89-0.58-2.37c-2.57-2.43-5.27-4.73-8-6.99c-0.98-0.81-1.94-0.72-2.85,0.47c-0.64,0.84-1.71,1.35-2.87,1.78
	c1.82-2.15,3.83-4.18,5.42-6.49c4.47-6.49,10.33-12.67,8.27-21.47c-1.14-4.87-3.18-9.58-5.28-14.15c-2.07-4.51-4.69-8.78-7.15-13.11
	C501.41,71.59,500.32,70.22,499.09,68.44z"/>
<path style="fill:#FFFFFF;" d="M20.01,107.14c-2.35-3.78-9.14-1.84-12.34,1.88c-1.31-6.48-1.6-12.96,0.34-19.34
	c0.59-1.96,1.57-3.87,2.72-5.57c3.16-4.72,6.53-9.31,9.76-13.99c0.96-1.4,1.69-2.95,2.61-4.38c0.42-0.65,1.03-1.17,1.55-1.76
	c0.17,0.09,0.33,0.19,0.5,0.28c-1.28,3.33-2.06,6.97-3.95,9.91c-3.78,5.9-4.77,12-3.44,18.75C18.71,97.62,19.28,102.4,20.01,107.14z
	"/>
<path style="fill:#FFFFFF;" d="M277.45,31.56c-0.65,3.25-1.28,6.51-1.96,9.76c-0.72,3.41-1.75,6.77-2.15,10.21
	c-0.27,2.3,0.24,4.72,0.55,7.06c0.41,3.07,0.98,6.12,1.56,9.66c5.63-1.99,11.09-3.93,16.45-5.82c1.57,8.86,3.06,17.54,4.68,26.2
	c0.3,1.61-0.46,1.93-1.68,2.22c-4.49,1.03-8.98,2.12-13.47,3.16c-5.35,1.25-10.7,2.48-16.04,3.72c-1.59,0.37-2.78,0.24-3.61-1.56
	c-1.14-2.48-2.38-5-4.05-7.13c-2.64-3.37-2.77-7.19-2.98-11.13c-0.42-8.18-0.93-16.36-1.5-24.53c-0.34-4.88-0.87-9.76-1.3-14.63
	c-0.05-0.59-0.1-1.23,0.07-1.78c1.7-5.52,3.45-11.03,5.17-16.55c0.65-2.09,1.25-4.21,1.79-6.04c5.49,1.43,10.84,2.81,16.18,4.24
	c0.51,0.14,0.93,0.59,1.39,0.89l0.03-0.04c-5.02-1.28-10.06-2.48-15.04-3.89c-1.53-0.43-2.05-0.2-2.48,1.34
	c-1.52,5.49-2.93,11.04-4.9,16.38c-1.33,3.58-1.47,7.15-1.23,10.75c0.39,5.92,1.29,11.8,1.79,17.71c0.55,6.67,0.84,13.37,1.36,20.05
	c0.11,1.42,0.43,2.97,1.14,4.17c1.63,2.79,4.07,5.2,5.21,8.14c0.96,2.46,1.87,3.13,4.29,2.54c8.88-2.16,17.77-4.27,26.68-6.26
	c1.73-0.38,2.26-1.1,1.98-2.7c-1.39-7.94-2.79-15.88-4.2-23.94c-0.75,0.1-1.28,0.08-1.74,0.25c-4.04,1.5-8.11,2.91-12.07,4.59
	c-2.25,0.96-3.16-0.01-3.44-2.01c-0.21-1.53-0.58-3.05-0.71-4.59c-0.3-3.45-0.87-6.93-0.63-10.35c0.25-3.51,1.25-6.98,2.1-10.42
	c0.81-3.25,1.85-6.44,2.79-9.66L277.45,31.56z"/>
<path style="fill:#FFFFFF;" d="M426.7,15.66c4.41-0.53,8.66-1.04,13.3-1.6c-0.93,3.23-1.74,6.18-2.66,9.11
	c-0.57,1.84-1.23,3.66-2,5.43c-0.27,0.63-1.08,1.57-1.48,1.5c-0.91-0.16-2.23-0.67-2.51-1.39C429.67,24.44,428.24,20.08,426.7,15.66
	z M432.62,20.7c0.85-0.81,1.36-1.29,1.87-1.78c-0.67-0.55-1.28-1.35-2.05-1.56c-0.44-0.12-1.15,0.7-1.74,1.1
	C431.25,19.09,431.79,19.73,432.62,20.7z"/>
<path style="fill:#FFFFFF;" d="M245.1,73.52c0,5.7,0.03,10.81-0.02,15.93c-0.02,1.77,0.1,3.65-0.45,5.28
	c-0.35,1.02-1.77,2.22-2.83,2.34c-2.24,0.27-4.55-0.11-6.83-0.59c1.78,0,3.56,0.05,5.34-0.01c2.99-0.1,4.08-1.45,4.04-4.36
	c-0.08-5.33-0.09-10.67,0.08-16c0.06-1.74-0.25-2.41-2.09-2.47c-6.23-0.21-12.46-0.55-18.69-0.88c-0.95-0.05-1.95-0.2-2.81-0.57
	c-0.49-0.21-1.05-0.97-1.04-1.47c0.05-1.7,0.16-3.44,0.56-5.08c1.33-5.39,0.61-10.72-0.82-15.86c-0.88-3.15-2.8-6.03-4.41-8.94
	c-3.1-5.59-6.31-11.12-9.18-16.95c0.35,0.19,0.86,0.29,1.02,0.59c4.35,7.91,8.77,15.78,12.9,23.81c1.01,1.96,1.28,4.42,1.39,6.68
	c0.17,3.82,1.29,7.64-0.07,11.5c-0.45,1.27-0.38,2.85-0.09,4.19c0.14,0.64,1.33,1.46,2.07,1.49c5.05,0.2,10.12,0.11,15.17,0.33
	C240.75,72.61,243.13,73.21,245.1,73.52z"/>
<path style="fill:#FFFFFF;" d="M332.1,100.55c0.36,0.05,0.76,0.02,1.07,0.17c1.87,0.93,2.96,0.23,3.97-1.47
	c2.89-4.82,3.66-10.14,3.92-15.59c0.48-10.08,0.65-20.18,1.43-30.24c0.55-7.01,1.91-13.96,2.89-20.93c0.35-2.49,0.73-4.99,0.89-7.5
	c0.04-0.61-0.59-1.51-1.16-1.86c-0.92-0.56-2.05-0.77-3.07-1.12c3.84-0.61,5.18,0.83,4.63,4.5c-0.83,5.57-1.37,11.19-2.06,16.78
	c-0.43,3.45-1,6.89-1.33,10.35c-0.39,4.07-0.6,8.16-0.84,12.24c-0.49,8.17-0.62,16.37-1.56,24.49c-0.41,3.54-2.28,6.98-3.84,10.31
	c-0.87,1.86-3.14,1.63-4.92-0.16C332.14,100.51,332.1,100.55,332.1,100.55z"/>
<path style="fill:#FFFFFF;" d="M189.77,29.8c1.56,4.19,2.93,8.47,4.72,12.56c2.01,4.6,4.27,9.11,6.66,13.54
	c2.38,4.4,2.68,9.02,2.27,13.85c-0.46,5.41-0.95,10.84-1.1,16.26c-0.08,2.94,0.42,5.92,0.91,8.84c0.08,0.49,1.46,1.07,2.24,1.08
	c5.65,0.09,11.31,0.05,16.96,0.44c-6.57,0-13.13,0-20.03,0c-0.27-2.84-0.86-5.91-0.77-8.96c0.18-6.77,0.62-13.53,1.1-20.29
	c0.3-4.23-0.92-7.98-2.7-11.76c-3.65-7.76-7.02-15.65-10.48-23.5c-0.25-0.57-0.3-1.23-0.45-1.85
	C189.33,29.94,189.55,29.87,189.77,29.8z"/>
<path style="fill:#FFFFFF;" d="M295.73,18.9c0.94,3.77,1.64,7.61,2.88,11.28c2.75,8.18,5.73,16.29,8.71,24.39
	c1.14,3.11,2.26,3.56,5.46,2.67c3.58-0.99,7.15-1.99,10.83-2.87c-1.65,0.66-3.26,1.42-4.95,1.94c-2.19,0.68-4.51,1.01-6.66,1.79
	c-2.56,0.93-4.12-0.17-4.93-2.3c-2.8-7.3-5.52-14.63-8.11-22c-1.42-4.04-2.54-8.18-3.7-12.31c-0.24-0.87-0.04-1.87-0.04-2.82
	C295.39,18.75,295.56,18.82,295.73,18.9z"/>
<path style="fill:#FFFFFF;" d="M422.19,53.93c1.9-0.19,2.38,0.81,2.41,2.54c0.13,7.71,0.31,15.43,0.59,23.14
	c0.05,1.34-0.21,2.01-1.44,2.76c-3.91,2.41-7.67,5.05-11.46,7.64c-2.93,2-5.8,4.1-8.76,6.07c-0.78,0.52-1.78,0.68-2.68,1.01
	c0,0,0,0,0,0c6.67-4.66,13.18-9.57,20.07-13.86c2.92-1.82,3.69-3.64,3.5-6.86c-0.4-6.74-0.31-13.51-0.57-20.27
	c-0.03-0.76-1.06-1.48-1.62-2.22L422.19,53.93z"/>
<path style="fill:#FFFFFF;" d="M158.3,102.78c-5.97-0.4-8.58-1.81-9.96-6.35c-1.78-5.86-4.21-11.53-6.04-17.38
	c-0.94-3.02-1.83-6.24-0.19-9.91c-0.46,8.79,3.19,16.1,5.68,23.68c0.32,0.98,0.83,1.9,1.14,2.89c1.11,3.6,3.38,5.78,7.21,6.26
	c0.73,0.09,1.42,0.55,2.13,0.84L158.3,102.78z"/>
<path style="fill:#FFFFFF;" d="M369.7,63.2c-0.85-2.23-0.78-5.01-0.25-7.9c1.55-8.44,2.93-16.91,4.43-25.36
	c0.16-0.89,0.69-1.7,1.25-3.01C373.59,39.61,369.61,51.29,369.7,63.2z"/>
<path style="fill:#FFFFFF;" d="M323.79,77.81c-1.37-0.72-2.52-1.32-3.68-1.92c0.05-0.11,0.09-0.22,0.14-0.32
	c0.77,0.28,1.55,0.56,2.71,0.98c0.46-7.75,0.91-15.3,1.36-22.85c0.23,0.01,0.45,0.03,0.68,0.04
	C324.6,61.65,324.2,69.56,323.79,77.81z"/>
<path style="fill:#FFFFFF;" d="M422.23,53.88c-3.19-0.61-6.39-1.18-9.57-1.84c-3.12-0.64-6.23-1.39-9.35-2.06
	c-1.23-0.27-1.9,0.2-2.23,1.5c-0.89,3.57-1.9,7.11-3.24,10.6c0.2-1.17,0.3-2.37,0.6-3.51c0.72-2.73,1.46-5.45,2.36-8.12
	c0.18-0.55,1.14-1.33,1.58-1.23c6.37,1.36,12.71,2.85,19.05,4.32c0.27,0.06,0.5,0.26,0.75,0.39
	C422.19,53.93,422.23,53.88,422.23,53.88z"/>
<path style="fill:#FFFFFF;" d="M311.95,88.7c-3.45-2.41-6.89-4.82-10.24-7.16c1.84-5.06,3.58-9.72,6.87-13.6
	c-1.5,3.15-3.05,6.28-4.5,9.46c-0.96,2.12-1.36,4.17,1.06,5.77c2.43,1.61,4.75,3.38,7.12,5.08C312.15,88.4,312.05,88.55,311.95,88.7
	z"/>
<path style="fill:#FFFFFF;" d="M329.55,26.64c-0.94,3.86-1.86,7.73-2.87,11.57c-0.13,0.49-0.66,1.03-1.14,1.24
	c-2.31,1.01-5.39,0.06-6.86-2.07c-1.25-1.8-2.43-3.65-3.65-5.48c0.15-0.11,0.29-0.21,0.44-0.32c1.34,1.93,2.9,3.75,3.96,5.83
	c1,1.95,2.5,1.83,4.14,1.74c1.6-0.09,2.46-0.88,2.83-2.55c0.75-3.38,1.74-6.7,2.63-10.05C329.2,26.59,329.38,26.61,329.55,26.64z"/>
<path style="fill:#FFFFFF;" d="M123.15,43.88c1.59,0.52,3.2,1.01,4.77,1.6c0.33,0.13,0.71,0.61,0.75,0.96
	c0.51,4.57,0.97,9.15,1.43,13.72c0.04,0.36-0.09,0.73-0.34,1.11c-0.63-4.45-1.39-8.89-1.81-13.36c-0.16-1.7-0.68-2.38-2.29-2.61
	c-0.93-0.13-1.81-0.62-2.71-0.94C123.02,44.2,123.09,44.04,123.15,43.88z"/>
<path style="fill:#FFFFFF;" d="M409.04,66.37c-0.96-0.41-1.62-0.69-2.27-0.97c0.02-0.1,0.05-0.21,0.07-0.31
	c0.99,0.2,1.99,0.4,3.26,0.66c-1.41,4.04-2.75,7.88-4.24,12.18c-1.89-1.25-3.77-2.49-5.64-3.73c0.1-0.16,0.2-0.31,0.3-0.47
	c1.06,0.73,2.12,1.46,3.18,2.18c0.88,0.6,1.65,0.69,2.09-0.51C406.87,72.42,407.94,69.44,409.04,66.37z"/>
<path style="fill:#FFFFFF;" d="M393.26,38.67c-1.57,6.59-3.13,13.19-4.74,19.77c-0.15,0.61-0.64,1.13-0.96,1.7l0.05,0.04
	c0.91-3.42,1.91-6.82,2.72-10.27c0.71-3.02,1.16-6.11,1.83-9.14C392.31,40.02,392.88,39.36,393.26,38.67
	C393.26,38.67,393.26,38.67,393.26,38.67z"/>
<path style="fill:#FFFFFF;" d="M487.55,86.3c0.3-2.92,0.6-5.83,0.89-8.75c0.03-0.29,0.16-0.7-0.12-0.86
	c-2.73-1.54-5.54-3.04-8.33-4.55c-0.25,0.14-0.51,0.29-0.76,0.43c2.04,1.06,4.01,2.16,6.15,3.16c1.76,0.82,2.34,1.72,2.02,2.98
	c-0.47,1.89-0.62,3.8-0.8,5.7c-0.06,0.63,0.21,1.27,0.33,1.9C487.15,86.31,487.35,86.3,487.55,86.3z"/>
<path style="fill:#FFFFFF;" d="M408.71,44.28c2.94,0,5.89,0.03,8.83-0.01c2.77-0.04,3.69-0.99,3.74-3.78
	c0.03-1.61,0.01-3.22,0.36-4.85c0,2.52,0.19,5.07-0.12,7.56c-0.09,0.69-1.61,1.67-2.52,1.72c-3.39,0.21-6.81,0.08-10.21,0.08
	C408.77,44.76,408.74,44.52,408.71,44.28z"/>
<path style="fill:#FFFFFF;" d="M155.75,69.5c0.9,2.17,1.7,4.38,2.73,6.49c0.99,2.04,2.97,2.54,5.05,2.65
	c0.8,0.05,1.61,0.01,2.39,0.33c-2.56-0.11-5.72,0.89-7.38-1.54C156.99,75.15,155.48,72.55,155.75,69.5z"/>
<path style="fill:#FFFFFF;" d="M312.61,29.02c-2.24-4.67-4.48-9.34-6.72-14.01c0.14-0.14,0.29-0.28,0.43-0.42
	c0.35,0.2,0.97,0.34,1.02,0.6c0.92,4.84,3.46,8.94,5.89,13.09c0.06,0.1-0.02,0.27-0.03,0.41C313,28.79,312.8,28.9,312.61,29.02z"/>
<path style="fill:#FFFFFF;" d="M103.54,93.54c-2.29,0-4.59,0.11-6.86-0.07c-0.67-0.05-1.71-0.85-1.84-1.47
	c-0.63-2.94-1.01-5.93-1.04-8.97c0.45,2.36,0.98,4.71,1.32,7.09c0.31,2.15,1.5,3.13,3.57,3.17c1.62,0.04,3.25,0.01,4.87,0.01
	C103.56,93.38,103.55,93.46,103.54,93.54z"/>
<path style="fill:#FFFFFF;" d="M158.27,102.83c4.3,0.21,8.59,0.42,12.89,0.61c0.87,0.04,1.74,0.01,2.61,0.22
	c-5.19,0.54-10.33-0.01-15.47-0.88C158.3,102.78,158.27,102.83,158.27,102.83z"/>
<path style="fill:#FFFFFF;" d="M177.7,57.76c4.82-0.48,7.86,4.55,12.66,4.31C185.37,63.12,182.32,58.05,177.7,57.76z"/>
<path style="fill:#FFFFFF;" d="M400.84,97.08c0.07,0.48,0.15,0.97,0.31,2.02c-4.8-1.71-9.11-3.36-13.15-6.84
	c3.85,1.96,7.12,3.71,10.48,5.26C399.08,97.79,400.05,97.25,400.84,97.08C400.85,97.08,400.84,97.08,400.84,97.08z"/>
<path style="fill:#FFFFFF;" d="M100.96,81.83c2.83,3.78,7.35,4.2,11.24,6.73C104.74,86.48,101.31,84.45,100.96,81.83z"/>
<path style="fill:#FFFFFF;" d="M443.72,54.65c1.83,1.4,12.52,3.3,13.94,2.83C453.02,56.53,448.37,55.59,443.72,54.65z"/>
<path style="fill:#FFFFFF;" d="M276.55,19.51c2.93,0.25,3.87,1.38,3.17,4.15c-0.66,2.66-1.51,5.27-2.28,7.9c0,0,0.04,0.03,0.04,0.03
	c0.38-1.86,0.59-3.78,1.18-5.57c0.9-2.77,0.95-5.1-2.08-6.55L276.55,19.51z"/>
<path style="fill:#FFFFFF;" d="M391.77,146.64c3.66,0.17,7.32,0.34,10.98,0.51c-0.01,0.2-0.02,0.41-0.02,0.61
	c-3.66-0.17-7.33-0.34-10.99-0.5C391.74,147.05,391.76,146.85,391.77,146.64z"/>
<path style="fill:#FFFFFF;" d="M429.5,31.72c3.25,0.16,5.96,1.07,8.82-0.33c-0.18,0.43-0.37,1.35-0.61,1.36
	C435.1,32.92,432.43,33.41,429.5,31.72z"/>
<path style="fill:#FFFFFF;" d="M387.55,60.13c0.05,4.52,4.2,5.95,6.58,8.72c-0.13,0.15-0.26,0.3-0.4,0.44
	c-2.1-2.05-4.3-4.01-6.21-6.22c-0.47-0.54,0.03-1.91,0.08-2.9C387.6,60.17,387.55,60.13,387.55,60.13z"/>
<path style="fill:#FFFFFF;" d="M471.91,89.46c-6.47-0.44-11.82,2.01-17.36,0.61c0.66,1.12,1.18,1.3,3.98,0.99
	C462.67,90.59,466.8,90.07,471.91,89.46z"/>
<path style="fill:#FFFFFF;" d="M154.01,52.49c5.62,0.42,6.2,1.27,4.42,6.48C160.06,54.66,157.49,53.3,154.01,52.49z"/>
<path style="fill:#FFFFFF;" d="M471.27,38.79c5.49,0.27,6.64,3.05,10.17,4.37C479.13,40.21,474.67,38.14,471.27,38.79z"/>
<path style="fill:#FFFFFF;" d="M466.68,70.02c3.34,0.18,9.38-1.86,10.98-3.5C474.34,67.58,470.51,68.8,466.68,70.02
	C466.68,70.02,466.68,70.02,466.68,70.02z"/>
<path style="fill:#FFFFFF;" d="M470.06,53.87c0.31-0.42,0.59-0.79,0.95-1.27c-2.94-0.68-5.76-1.31-8.88-1.25
	C464.83,52.1,468.38,51.83,470.06,53.87z"/>
<path style="fill:#FFFFFF;" d="M393.26,38.67c-0.07-0.78-0.14-1.57-0.22-2.49c3.35-0.22,6.47-0.42,9.6-0.63
	c0.01,0.11,0.02,0.23,0.02,0.34c-2.32,0.19-4.65,0.53-6.97,0.54C394.02,36.43,393.18,36.94,393.26,38.67
	C393.26,38.67,393.26,38.67,393.26,38.67z"/>
<path style="fill:#FFFFFF;" d="M333.32,19.15c-3.51,0.06-1.79,3.58-3.67,5c0.51-1.86,0.81-3.43,1.44-4.86
	C331.23,18.98,332.54,19.19,333.32,19.15z"/>
<path style="fill:#FFFFFF;" d="M74.35,108.78c-2.6-1.11-4.77-2.11-5.34-4.91C70.71,105.43,72.39,106.98,74.35,108.78z"/>
<path style="fill:#FFFFFF;" d="M332.14,100.51c-2.43-0.95-4.85-1.89-7.28-2.84c0.12-0.27,0.25-0.55,0.37-0.82
	c2.29,1.23,4.58,2.47,6.87,3.7C332.1,100.55,332.14,100.51,332.14,100.51z"/>
<path d="M271.67,115.91c4.08-0.03,7.18,1.88,10.1,4.33c1.41,1.18,1.54,2.54,0.64,3.96c-1.81,2.85-1.54,5.07,0.87,7.7
	c2.44,2.66,3.76,6.17,4.06,9.94c0.18,2.3-0.62,3.9-2.7,4.88c-3.83,1.8-7.63,3.66-11.49,5.38c-2.29,1.02-4.63,2.05-7.05,2.65
	c-4.35,1.07-7.46-1.53-9.5-4.69c-2.43-3.76-2.96-7.96,0.22-12c1.61-2.06,3.31-0.29,4.91-0.68c0.18,0.82,0.57,1.65,0.5,2.45
	c-0.19,2.09,2.61,6.67,4.64,7.33c1.75,0.57,9.26-3.52,9.7-5.35c0.13-0.54,0.12-1.25-0.12-1.74c-1.28-2.59-2.47-5.26-4.05-7.65
	c-0.92-1.4-0.98-2.22,0.1-3.44c2.16-2.45,2.07-2.81-0.5-4.96c-0.17-0.14-0.33-0.3-0.51-0.43c-0.97-0.71-1.35-2.72-3.1-1.69
	c-1.7,1-4.04,1.64-3.47,4.48c0.07,0.34-0.04,1.03-0.13,1.04c-2.21,0.28-4.43,0.71-6.63,0.62c-0.97-0.04-1.2-3.29-0.53-4.55
	c1.88-3.54,5.51-4.63,8.76-6.18C267.98,116.52,269.89,116.35,271.67,115.91z"/>
<path d="M288.87,186.73c-7.52-0.82-12.24-4.24-15.61-9.58c-1.39-2.2-0.9-4.66,0.54-6.74c2.35-3.41,4.51-7.04,7.37-9.98
	c5.89-6.07,14.71-3.63,18.15,1.79c1.64,2.58,2.81,5.54,3.75,8.47c1.02,3.21,0.15,6.11-2.6,8.36c-2.07,1.69-3.84,3.79-6.05,5.26
	C292.52,185.56,290.2,186.17,288.87,186.73z M289.48,168.54c-3.38,0.02-4.56,1.07-4.5,4c0.04,2.31,1.61,3.71,4.08,3.67
	c2.44-0.05,4.46-2.07,4.4-4.39C293.39,169.41,292.32,168.52,289.48,168.54z"/>
<path d="M231.04,174.8c0.11-4.71,1.82-8.9,5.57-11.78c2.48-1.91,5.74-1.32,8.66-0.65c3.96,0.92,7.04,3.3,9.8,6.22
	c2.73,2.88,1.43,8.45-1.23,10.69c-3.68,3.09-7.58,6.13-12.54,6.87c-1.36,0.2-3.05-0.4-4.29-1.12
	C233.17,182.79,230.72,179.6,231.04,174.8z M243.49,176.18c2.45-0.04,3.7-1.12,3.55-2.86c-0.13-1.53-0.99-2.44-2.59-2.48
	c-1.62-0.04-3.26,1.44-3.3,2.92C241.09,175.67,242.35,176.06,243.49,176.18z"/>
<path d="M223.41,155.77c-1.7-0.19-3.4-0.52-5.11-0.52c-2.22,0-3.44-1.21-4.23-3.03c-2.9-6.67-0.34-11.74,5.29-15.74
	c0.31-0.22,0.85-0.23,1.27-0.19c3.09,0.34,6.22,0.53,9.26,1.14c4.08,0.81,6.2,3.89,5.37,8.08
	C234.19,150.84,230.93,156.44,223.41,155.77z"/>
<path d="M341.57,147.67c1.71-5.56,2.63-10.64-0.65-15.85c1.47-0.14,2.61-0.37,3.75-0.35c4.76,0.06,9.52,0.17,14.28,0.35
	c0.52,0.02,1.14,0.49,1.52,0.92c3.24,3.72,3.68,8.12,2.92,12.76c-0.18,1.1-0.53,2.18-2.04,2.18
	C354.96,147.66,348.57,147.67,341.57,147.67z"/>
<path d="M319.17,147.95c-3.12-0.57-6.3-0.92-9.34-1.78c-3.59-1-6.4-5.45-6.15-9.03c0.13-1.82,0.98-3.28,2.73-3.66
	c3.75-0.81,7.54-1.58,11.35-1.89c1.6-0.13,3.27,0.82,4.26,2.61c1.98,3.59,1.98,7.2,0.7,10.95
	C321.86,147.7,321.88,147.71,319.17,147.95z"/>
<path d="M198.03,136.99c-2.18,4.86-3.8,9.51-2.64,14.47c-3.62,0-7.07,0.01-10.52-0.01c-0.44,0-0.88-0.15-1.32-0.15
	c-3.73-0.04-3.89-0.04-3.66-3.85c0.16-2.64,0.62-5.31,1.37-7.84c0.95-3.23,3.02-3.95,6.3-3.38c2.81,0.49,5.72,0.41,8.58,0.58
	C196.63,136.84,197.14,136.91,198.03,136.99z"/>
<path d="M423.24,133.34c3.1,0.12,6.2,0.28,9.31,0.35c1.11,0.03,2.27,0,3.33-0.28c2.8-0.75,4.48,0.75,6.09,2.66
	c2.13,2.54,3.77,5.23,2.8,8.7c-0.17,0.63-0.98,1.09-1.54,1.58c-0.13,0.11-0.43,0.02-0.66,0.02c-5.34,0-10.68,0-16.1,0
	c0.92-4.23-0.02-8.29-3.32-11.71c-0.19-0.2,0.1-0.86,0.16-1.3C423.3,133.36,423.24,133.34,423.24,133.34z"/>
<path d="M270.89,193.86c-0.08,3.9-1.36,4.82-4.79,3.96c-0.5-0.12-1.05-0.03-1.54-0.17c-1.22-0.35-1.88-0.98-1.49-2.45
	c0.72-2.69,1.22-5.44,1.98-8.13c0.11-0.4,1.53-0.89,1.6-0.8c1.39,1.91,2.72,3.86,3.93,5.89
	C270.92,192.76,270.85,193.61,270.89,193.86z"/>
<path d="M263.09,213.03c-1.5,0.64-2.28,0.33-2.49-1.18c-0.09-0.65-0.37-1.27-0.6-1.9c-0.99-2.63-0.83-2.97,1.97-3.99
	C263.96,208.11,262.91,210.67,263.09,213.03z"/>
<path d="M272.86,205.92c1.31,0.42,3.11,0.46,3.57,1.26c1.03,1.8-0.15,3.82-2.19,4.66C271.77,210.59,272.3,208.55,272.86,205.92z"/>
<path d="M271.62,207.37c0,0.22,0.08,0.49-0.01,0.66c-0.47,0.88-0.9,2.38-1.49,2.45c-1.31,0.16-1.72-1.06-1.69-2.32
	c0.01-0.51-0.31-1.06-0.2-1.52c0.2-0.87,0.51-2.35,0.93-2.41c1.42-0.19,2.64,0.41,2.5,2.25c-0.02,0.3,0,0.59,0,0.89
	C271.65,207.37,271.64,207.37,271.62,207.37z"/>
<path d="M267.52,209.37c0,0.59,0.19,1.27-0.05,1.74c-0.25,0.49-0.89,1.01-1.41,1.06c-0.47,0.05-1.33-0.4-1.46-0.81
	c-0.33-1.03-0.37-2.15-0.48-3.24c-0.15-1.48,0.87-2.13,2.02-1.99c0.54,0.07,1.03,1.2,1.39,1.92c0.18,0.35,0.03,0.87,0.03,1.32
	C267.55,209.37,267.54,209.37,267.52,209.37z"/>
<path d="M272.49,211.28c-0.53,2.22-0.86,3.65-1.2,5.08c-0.75-0.2-2.03-0.24-2.15-0.63c-0.36-1.2-0.52-2.6-0.22-3.77
	C269.02,211.55,270.76,211.58,272.49,211.28z"/>
<path d="M277.59,208.56c0.23-0.15,0.91-0.93,1.51-0.88c1.24,0.1,2.81,0.18,2.82,2.08c0.01,1.25-0.39,2.29-1.88,2.19
	C278.49,211.84,277.3,211.21,277.59,208.56z"/>
<path d="M276.69,215.84c0.72-1.49-0.68-3.85,2.19-3.28c1.2,0.24,1.88,0.86,1.22,2.19c-0.16,0.33-0.17,0.74-0.38,1.02
	c-0.65,0.87-1.37,1.7-2.06,2.55C277.3,217.4,276.94,216.47,276.69,215.84z"/>
<path d="M248.69,223.88c1.61-0.08,1.61-3.42,3.81-1.56c0.45,0.38,0.45,2.11,0,2.56C251.23,226.16,249.78,226.26,248.69,223.88z"/>
<path d="M259.42,214.45c0.68,1.54,1.22,2.49,1.47,3.51c0.06,0.25-1.16,1.09-1.2,1.04c-0.8-0.76-1.6-1.56-2.14-2.5
	C257.45,216.32,258.44,215.51,259.42,214.45z"/>
<path d="M288.59,211.06c-0.6,1.62-0.94,2.87-1.56,3.97c-0.19,0.33-1.23,0.4-1.76,0.23c-0.34-0.12-0.79-1.07-0.64-1.34
	C285.36,212.6,286.25,211.35,288.59,211.06z"/>
<path d="M256.36,211.37c0.31,1.3,0.63,2.6,0.96,3.97c-2.07,0.68-2.91-0.57-3.15-1.8c-0.13-0.69,0.89-1.61,1.39-2.42
	C255.82,211.2,256.09,211.28,256.36,211.37z"/>
<path d="M296.01,218.08c-1.25,1.86-2,3.73-4.53,3.64C292.04,219.23,293.45,218.05,296.01,218.08z"/>
<path d="M286.35,216.96c-0.29,0.65-0.46,1.31-0.83,1.82c-0.5,0.69-1.17,1.26-1.76,1.88c-0.05-1.11-0.27-2.24-0.12-3.32
	c0.18-1.28,1.09-1.42,2.14-0.85C285.91,216.56,286.01,216.68,286.35,216.96z"/>
<path d="M281.44,214.53c0.56-1.51,1.12-3.03,1.7-4.61C285.22,211.33,284.57,213.43,281.44,214.53z"/>
<path d="M292.49,214.17c-1.21,0.85-1.88,1.5-2.67,1.75c-0.27,0.09-1.17-0.8-1.23-1.31c-0.13-1.06,0.42-1.92,1.69-1.63
	C290.87,213.11,291.38,213.56,292.49,214.17z"/>
<path d="M289.46,221.56c-0.81-1.59,0.48-4.22,1.82-4.11c0.26,0.02,0.75,1.07,0.61,1.27C291.2,219.72,290.33,220.58,289.46,221.56z"
	/>
<path d="M276.3,212.92c-0.35,0.81-0.5,1.88-1.11,2.33c-0.34,0.25-1.44-0.51-2.2-0.81c0.78-0.71,1.57-1.43,2.35-2.14
	C275.66,212.51,275.98,212.71,276.3,212.92z"/>
<path d="M248.45,223.59c-1.06-0.75-1.89-1.34-3.3-2.34c1.11-0.48,2.01-1.23,2.51-1.01C248.98,220.8,249.24,221.99,248.45,223.59z"/>
<path d="M251.42,217.11c-0.15,1.03-0.18,1.67-0.36,2.27c-0.17,0.56-0.51,1.07-0.77,1.61c-0.44-0.34-1.17-0.62-1.25-1.04
	c-0.12-0.6,0.05-1.42,0.41-1.9C249.77,217.61,250.53,217.5,251.42,217.11z"/>
<path d="M298.17,215.31c-0.85,0.79-1.34,1.54-1.98,1.71c-0.39,0.11-1.02-0.68-1.54-1.07c0.52-0.53,0.95-1.25,1.58-1.51
	C296.6,214.29,297.28,214.88,298.17,215.31z"/>
<path d="M263.8,214.59c-0.23,1.16-0.45,2.32-0.68,3.47c-0.21,0.04-0.41,0.07-0.62,0.11c-0.41-0.88-1.1-1.76-1.11-2.65
	c-0.01-0.47,1.17-0.95,1.82-1.42C263.41,214.27,263.61,214.43,263.8,214.59z"/>
<path d="M286.67,219.78c-0.56-1.4,0.13-2.32,1.38-2.92c0.29-0.14,0.77,0.1,1.16,0.16c-0.58,1.06-1.17,2.12-1.75,3.17
	C287.2,220.06,286.93,219.92,286.67,219.78z"/>
<path d="M268.27,214.54c-1.26,0.5-1.97,0.9-2.72,1c-0.23,0.03-0.57-0.76-0.87-1.17c0.65-0.42,1.26-0.96,1.97-1.19
	C266.9,213.09,267.39,213.77,268.27,214.54z"/>
<path d="M79.88,68.37c1.2,1.35,1.87,2.11,2.54,2.87c-0.86,0.71-1.66,1.57-2.64,2.03c-0.23,0.11-1.57-1.17-1.55-1.79
	C78.25,70.64,79.07,69.81,79.88,68.37z"/>
<path d="M109.18,104.63c-0.9-1.05-2.03-1.84-1.92-2.39c0.15-0.78,1.3-2.01,1.87-1.93c0.99,0.13,1.86,1.12,2.79,1.75
	C111.14,102.78,110.36,103.52,109.18,104.63z"/>
<path d="M119.2,56.99c-0.91-1.05-1.82-1.71-2.06-2.56c-0.11-0.38,1.32-1.74,1.72-1.61c1.05,0.34,1.92,1.24,2.86,1.92
	C121.02,55.38,120.31,56.01,119.2,56.99z"/>
<path d="M87.82,53.73c0.86,1.05,1.39,1.7,1.93,2.36c-0.89,0.57-1.73,1.35-2.71,1.61c-0.34,0.09-1.57-1.32-1.43-1.68
	C85.91,55.24,86.82,54.7,87.82,53.73z"/>
<path d="M103.21,44.52c1.02,0.98,1.77,1.7,2.52,2.42c-0.7,0.52-1.49,1.54-2.08,1.44c-0.78-0.14-1.56-1.07-2-1.85
	C101.52,46.29,102.49,45.43,103.21,44.52z"/>
<path d="M93.68,101.5c-0.71,0.41-1.53,1.26-2.09,1.12c-0.88-0.23-1.58-1.14-2.36-1.76c0.45-0.42,0.95-1.25,1.34-1.2
	c1.06,0.13,2.07,0.63,3.1,0.99C93.67,100.93,93.68,101.21,93.68,101.5z"/>
<path d="M116.26,78.78c1.06,1.01,1.73,1.66,2.41,2.31c-0.75,0.5-1.51,1.39-2.24,1.37c-0.6-0.02-1.34-1.05-1.65-1.79
	C114.66,80.38,115.54,79.67,116.26,78.78z"/>
<path d="M80.23,92.16c-0.24-0.69-0.87-1.57-0.64-2.01c0.36-0.7,1.25-1.4,2.01-1.53c0.5-0.08,1.17,0.84,1.76,1.31
	c-0.66,0.55-1.31,1.1-1.97,1.65C81,91.77,80.62,91.96,80.23,92.16z"/>
<path d="M119.74,87.55c0.76,0.88,1.67,1.66,1.56,1.85c-0.39,0.68-1.13,1.15-1.74,1.71c-0.39-0.44-1.15-0.93-1.1-1.3
	C118.55,89.15,119.14,88.55,119.74,87.55z"/>
<path d="M395.28,87.31c-1.19-1.62-2.38-2.52-2.46-3.52c-0.15-1.71,1.62-2.14,2.82-1.9c0.87,0.17,2.14,1.43,2.12,2.17
	C397.73,84.94,396.51,85.79,395.28,87.31z"/>
<path d="M419.34,76.87c-1.55,1.11-2.48,2.19-3.59,2.41c-0.65,0.13-1.57-1.12-2.37-1.75c1.07-0.85,2.06-1.89,3.27-2.45
	C417.05,74.91,418.02,75.97,419.34,76.87z"/>
<path d="M412.41,36.98c-1.06-1.46-1.71-2.35-2.36-3.25c0.8-0.56,1.69-1.67,2.39-1.56c1.02,0.16,1.89,1.2,2.83,1.86
	C414.49,34.83,413.71,35.64,412.41,36.98z"/>
<path d="M380.36,49.57c-1.02-1.38-2.07-2.19-1.96-2.78c0.13-0.69,1.23-1.53,2-1.64c0.57-0.08,1.88,0.98,1.83,1.4
	C382.12,47.4,381.3,48.15,380.36,49.57z"/>
<path d="M383.59,34.54c-1.03-1.04-1.67-1.69-2.31-2.33c0.66-0.65,1.41-1.9,1.97-1.82c0.78,0.11,1.61,1.12,2.01,1.94
	C385.41,32.63,384.41,33.49,383.59,34.54z"/>
<path d="M380.92,63.9c-0.77,0.53-1.53,1.47-2.3,1.46c-0.57,0-1.34-1.16-1.58-1.94c-0.09-0.3,1.03-1.35,1.63-1.38
	c0.73-0.03,1.49,0.66,2.24,1.04C380.91,63.36,380.92,63.63,380.92,63.9z"/>
<path d="M411.92,57.79c1.55,0.62,3.47-0.88,4.09,1.43c0.09,0.33-0.92,1.26-1.53,1.39C412.63,61.02,411.93,59.94,411.92,57.79z"/>
<path d="M397.51,26.42c1.02,0.76,1.84,1.38,2.66,1.99c-0.63,0.45-1.4,1.39-1.87,1.26c-0.91-0.25-1.66-1.1-2.48-1.7
	C396.3,27.52,396.78,27.08,397.51,26.42z"/>
<path d="M316.06,45.11c0.02,1.27-0.74,2.1-2.3,2.09c-1.64,0-3.49-1.85-3.01-3.43c0.27-0.9,1.59-1.86,2.59-2.07
	C314.77,41.4,316.1,43.17,316.06,45.11z"/>
<path d="M334.45,86.79c-1.52,1.31-2.34,2.59-3.33,2.73c-1.41,0.19-2.74-0.59-2.6-2.53c0.12-1.67,0.84-2.89,2.59-2.55
	C332.08,84.63,332.89,85.65,334.45,86.79z"/>
<path d="M334.13,59.07c0.6,0.77,1.69,1.57,1.79,2.48c0.17,1.43-0.87,2.75-2.41,2.49c-0.99-0.17-2.39-1.21-2.58-2.08
	C330.57,60.23,332.19,59.72,334.13,59.07z"/>
<path d="M340.44,30.57c-0.85,0.77-1.64,2.02-2.58,2.15c-0.67,0.09-2.01-1.2-2.23-2.08c-0.28-1.14,0.33-2.45,2.05-2.02
	c0.91,0.23,1.77,0.64,2.65,0.97C340.36,29.91,340.4,30.24,340.44,30.57z"/>
<path d="M315.15,78.24c0.94,1.14,2,1.88,1.95,2.53c-0.06,0.77-1.08,1.47-1.68,2.2c-0.84-0.78-1.69-1.55-2.53-2.33
	C313.51,79.98,314.13,79.32,315.15,78.24z"/>
<path d="M334.01,48.18c-1.09-1.24-2.06-1.87-2.27-2.69c-0.29-1.17,0.49-1.91,1.84-1.82c1.28,0.09,2.57,0.34,2.44,1.89
	C335.97,46.28,335.02,46.93,334.01,48.18z"/>
<path d="M307.33,26.23c-1.12,0.98-1.85,2.09-2.49,2.05c-0.69-0.05-1.63-1.08-1.89-1.87c-0.57-1.73,1.21-1.59,2.06-1.8
	C305.5,24.49,306.24,25.43,307.33,26.23z"/>
<path d="M231.69,82.18c1.58-0.13,2.74,0.35,2.77,2.26c0.03,1.61-1.27,2.73-3.09,2.76c-1.84,0.03-2.48-0.93-2.48-2.64
	C228.89,82.64,229.98,82.13,231.69,82.18z"/>
<path d="M215.68,83.92c-0.02,1.85-0.65,2.99-2.1,2.63c-1.02-0.25-2.49-1.23-2.61-2.05c-0.2-1.36,0.92-2.4,2.57-2.37
	C215.04,82.15,215.7,82.92,215.68,83.92z"/>
<path d="M204.4,36.02c-0.85,0.57-1.66,1.49-2.57,1.61c-1.26,0.17-2.56-0.76-2.13-2.09c0.28-0.88,1.62-1.68,2.64-1.98
	c0.49-0.14,1.35,0.94,2.04,1.47C204.39,35.36,204.39,35.69,204.4,36.02z"/>
<path d="M214.64,67.45c-1.26,1.16-1.95,2.17-2.88,2.48c-0.39,0.13-1.27-1.2-1.93-1.86c0.77-0.74,1.45-1.67,2.36-2.12
	C212.55,65.78,213.44,66.69,214.64,67.45z"/>
<path d="M209.98,49.16c0.79,0.8,1.34,1.35,1.89,1.9c-0.7,0.52-1.4,1.43-2.09,1.43c-0.61,0-1.22-1.03-1.83-1.61
	C208.54,50.38,209.12,49.89,209.98,49.16z"/>
<path d="M157.03,86.11c2.24,0.27,3.43,0.81,3.52,2.6c0.07,1.38-0.81,1.95-1.96,1.84c-1.44-0.13-3-0.63-2.98-2.38
	C155.62,87.4,156.65,86.63,157.03,86.11z"/>
<path d="M171.56,89.28c0.72,0.6,1.44,1.21,2.17,1.81c-0.81,0.8-1.5,2-2.46,2.28c-1.24,0.36-2.88-0.01-2.97-1.77
	C168.18,89.64,169.85,89.85,171.56,89.28z"/>
<path d="M182.59,65.89c0.7,0.8,1.54,1.53,1.99,2.45c0.13,0.26-0.86,1.46-1.44,1.56c-0.71,0.12-2.14-0.4-2.19-0.79
	c-0.13-0.97,0.34-2.02,0.57-3.04C181.87,66.01,182.23,65.95,182.59,65.89z"/>
<path d="M177.39,76.18c0.89,0.95,1.42,1.51,1.96,2.08c-0.69,0.6-1.31,1.49-2.1,1.69c-0.45,0.11-1.7-0.97-1.66-1.42
	C175.66,77.83,176.54,77.22,177.39,76.18z"/>
<path d="M152.03,75.15c-1.39,0.83-2.13,1.61-2.84,1.59c-0.54-0.02-1.39-1.02-1.49-1.67c-0.18-1.32,0.92-1.57,1.94-1.33
	C150.26,73.87,150.8,74.4,152.03,75.15z"/>
<path d="M153.46,60.17c-0.84,0.32-1.68,0.84-2.53,0.86c-0.34,0.01-0.86-1.02-1.02-1.65c-0.09-0.35,0.48-1.25,0.57-1.22
	c1.02,0.29,2,0.7,3,1.08C153.47,59.55,153.47,59.86,153.46,60.17z"/>
<path d="M461.22,83.22c1.42-0.95,2.25-1.49,3.07-2.04c-1.03-0.36-2.05-0.99-3.1-1c-0.83-0.01-2.25,0.68-2.37,1.14
	C458.7,81.75,459.96,82.29,461.22,83.22z"/>
<path d="M476.08,79.83c-1.25,0.81-2.26,1.29-2.78,1.9c-0.13,0.15,1.48,1.07,1.98,1c1.31-0.19,2.45-0.73,3.66-1.14
	C478.15,81.11,477.36,80.62,476.08,79.83z"/>
<path d="M449.76,73.61c1.91,0.88,3.5,1.74,5.56,0.66c0.44-0.23,0.27-1.3-0.25-1.51C453.09,71.98,451.49,72.59,449.76,73.61z"/>
<path d="M469.9,47.07c1.08-0.71,1.72-1.13,2.35-1.55c-0.97-0.39-1.87-0.99-2.94-1.09c-0.55-0.05-1.86,0.74-1.94,1.2
	C467.32,45.97,468.65,46.39,469.9,47.07z"/>
<path d="M483.2,52.31c-1.49,0.52-2.7,0.94-3.9,1.36c0.7,0.25,1.39,0.71,2.09,0.71C483.23,54.41,484.12,53.88,483.2,52.31z"/>
<path d="M450.48,49.06c1.27,0.58,1.95,1.06,2.8,1.19c0.36,0.05,1.1-0.65,1.66-1c-0.73-0.33-1.39-0.77-2.22-0.94
	C452.32,48.23,451.57,48.67,450.48,49.06z"/>
<path d="M471.26,62.53c-1.17,0.18-2.34,0.36-3.51,0.54c0.35,0.37,0.83,1.08,1.04,1.05c1.1-0.13,2.12-0.43,3.17-0.68
	C471.73,63.14,471.49,62.83,471.26,62.53z"/>
<path d="M276.58,19.47c3.03,1.44,2.98,3.78,2.08,6.55c-0.58,1.8-0.8,3.71-1.18,5.57c-0.94,3.22-1.99,6.41-2.79,9.66
	c-0.85,3.44-1.85,6.91-2.1,10.42c-0.25,3.42,0.33,6.9,0.63,10.35c0.13,1.54,0.5,3.05,0.71,4.59c0.28,2,1.19,2.97,3.44,2.01
	c3.96-1.69,8.03-3.1,12.07-4.59c0.46-0.17,0.99-0.15,1.74-0.25c1.42,8.07,2.81,16,4.2,23.94c0.28,1.59-0.26,2.32-1.98,2.7
	c-8.92,1.98-17.81,4.1-26.68,6.26c-2.42,0.59-3.34-0.08-4.29-2.54c-1.14-2.94-3.58-5.36-5.21-8.14c-0.71-1.21-1.03-2.75-1.14-4.17
	c-0.52-6.68-0.81-13.37-1.36-20.05c-0.49-5.91-1.39-11.79-1.79-17.71c-0.24-3.6-0.09-7.17,1.23-10.75
	c1.98-5.33,3.38-10.88,4.9-16.38c0.43-1.54,0.95-1.77,2.48-1.34C266.52,16.99,271.57,18.19,276.58,19.47z M273.18,71.67
	c-0.42-1.34-0.88-2.36-1.05-3.43c-0.51-3.22-0.91-6.46-1.33-9.7c-0.33-2.57-0.99-5.17-0.82-7.71c0.19-2.86,1.04-5.69,1.79-8.48
	c1.63-6.08,3.42-12.13,5.04-18.21c0.18-0.68-0.1-2.11-0.48-2.23c-4.24-1.36-8.51-2.62-12.83-3.71c-1.38-0.35-2.5,0.08-2.61,2.05
	c-0.09,1.66-0.74,3.32-1.34,4.91c-2.92,7.75-5.01,15.45-3.67,24.02c1.37,8.78,1.76,17.73,2.22,26.62c0.2,3.85,0.33,7.51,2.65,10.81
	c1.35,1.92,2.4,4.06,3.59,6.1c1.73,2.96,1.71,2.85,4.89,1.96c7.15-2.01,14.32-3.93,21.49-5.84c1.42-0.38,2.06-0.85,1.74-2.6
	c-1.09-5.99-1.97-12.01-2.88-18.03c-0.25-1.66-1.4-1.35-2.35-1.07c-2.07,0.6-4.09,1.38-6.14,2.05
	C278.51,70.02,275.92,70.81,273.18,71.67z"/>
<path d="M432.62,20.7c-0.83-0.97-1.37-1.61-1.92-2.25c0.59-0.4,1.29-1.22,1.74-1.1c0.77,0.21,1.37,1.01,2.05,1.56
	C433.98,19.4,433.47,19.89,432.62,20.7z"/>
<path style="fill:#FFFFFF;" d="M289.48,168.54c2.84-0.02,3.91,0.87,3.98,3.28c0.07,2.32-1.96,4.34-4.4,4.39
	c-2.47,0.05-4.04-1.36-4.08-3.67C284.92,169.61,286.1,168.56,289.48,168.54z"/>
<path style="fill:#FFFFFF;" d="M243.49,176.18c-1.14-0.13-2.4-0.52-2.34-2.43c0.05-1.48,1.68-2.96,3.3-2.92
	c1.6,0.04,2.46,0.95,2.59,2.48C247.19,175.06,245.94,176.15,243.49,176.18z"/>
<path style="fill:#FFFFFF;" d="M273.18,71.67c2.74-0.86,5.33-1.65,7.91-2.49c2.05-0.67,4.07-1.45,6.14-2.05
	c0.95-0.27,2.1-0.59,2.35,1.07c0.91,6.02,1.79,12.04,2.88,18.03c0.32,1.75-0.32,2.22-1.74,2.6c-7.17,1.91-14.35,3.82-21.49,5.84
	c-3.18,0.9-3.15,1.01-4.89-1.96c-1.19-2.04-2.24-4.18-3.59-6.1c-2.32-3.3-2.45-6.96-2.65-10.81c-0.47-8.89-0.85-17.84-2.22-26.62
	c-1.34-8.57,0.75-16.27,3.67-24.02c0.6-1.59,1.25-3.25,1.34-4.91c0.11-1.98,1.24-2.4,2.61-2.05c4.31,1.09,8.59,2.34,12.83,3.71
	c0.38,0.12,0.66,1.55,0.48,2.23c-1.62,6.09-3.4,12.13-5.04,18.21c-0.75,2.79-1.6,5.63-1.79,8.48c-0.17,2.54,0.49,5.14,0.82,7.71
	c0.42,3.24,0.82,6.47,1.33,9.7C272.3,69.31,272.76,70.33,273.18,71.67z M284.68,80.47c-0.01-1.62-1.38-3.18-2.78-3.17
	c-1.84,0.02-3.25,1.16-3.21,2.59c0.05,1.86,1.67,3.73,3.25,3.5C283.5,83.16,284.67,82.29,284.68,80.47z M267.64,24.87
	c-1.2,1.26-2.48,2.02-2.49,2.8c-0.01,0.84,1.07,2.26,1.87,2.41c1.63,0.3,2.28-1.22,2.29-2.58
	C269.31,26.82,268.49,26.15,267.64,24.87z M263.85,60.11c-0.96,1.48-1.92,2.31-1.89,3.11c0.03,0.77,1.08,1.5,1.68,2.25
	c0.73-0.81,1.76-1.53,2.06-2.48C265.86,62.46,264.81,61.54,263.85,60.11z M266.29,85.33c0.94-1.2,1.83-1.92,2.03-2.79
	c0.09-0.42-1.1-1.56-1.77-1.62c-1.19-0.1-2.49,0.54-2.3,2.02C264.34,83.64,265.3,84.22,266.29,85.33z M263.39,43.32
	c-1.12,1.22-2.24,1.89-2.28,2.63c-0.04,0.7,1.06,1.45,1.65,2.18c0.61-0.62,1.57-1.16,1.72-1.88
	C264.64,45.55,263.95,44.69,263.39,43.32z"/>
<path d="M284.68,80.47c-0.01,1.82-1.18,2.69-2.75,2.92c-1.58,0.24-3.2-1.64-3.25-3.5c-0.04-1.44,1.37-2.57,3.21-2.59
	C283.3,77.29,284.67,78.85,284.68,80.47z"/>
<path d="M267.64,24.87c0.85,1.28,1.67,1.95,1.66,2.62c-0.01,1.37-0.65,2.89-2.29,2.58c-0.79-0.15-1.87-1.57-1.87-2.41
	C265.15,26.9,266.44,26.14,267.64,24.87z"/>
<path d="M263.85,60.11c0.96,1.43,2.01,2.34,1.85,2.88c-0.29,0.95-1.33,1.66-2.06,2.48c-0.6-0.75-1.65-1.48-1.68-2.25
	C261.93,62.42,262.89,61.59,263.85,60.11z"/>
<path d="M266.29,85.33c-0.99-1.11-1.95-1.69-2.04-2.39c-0.19-1.48,1.11-2.12,2.3-2.02c0.67,0.06,1.86,1.2,1.77,1.62
	C268.12,83.41,267.22,84.13,266.29,85.33z"/>
<path d="M263.39,43.32c0.56,1.37,1.25,2.24,1.1,2.92c-0.16,0.72-1.12,1.26-1.72,1.88c-0.6-0.73-1.69-1.48-1.65-2.18
	C261.15,45.21,262.27,44.53,263.39,43.32z"/>
</svg>
